<svg xmlns="http://www.w3.org/2000/svg" xmlns:xlink="http://www.w3.org/1999/xlink" width="200" zoomAndPan="magnify" viewBox="0 0 150 37.5" height="50" preserveAspectRatio="xMidYMid meet" version="1.0"><defs><clipPath id="8f9d44ad3d"><path d="M 1.539062 17 L 10 17 L 10 28 L 1.539062 28 Z M 1.539062 17 " clip-rule="nonzero"/></clipPath><clipPath id="2d0db0f9a6"><path d="M 7.230469 17.71875 C 7.0625 17.5 6.746094 17.453125 6.527344 17.625 C 6.453125 17.671875 6.40625 17.746094 6.378906 17.816406 L 2.007812 26.585938 C 1.886719 26.855469 1.984375 27.171875 2.25 27.292969 C 2.324219 27.316406 2.398438 27.339844 2.492188 27.339844 L 8.589844 27.339844 C 8.785156 27.339844 8.980469 27.242188 9.054688 27.046875 C 10.339844 24.328125 9.539062 20.199219 7.230469 17.71875 Z M 7.230469 17.71875 " clip-rule="nonzero"/></clipPath><linearGradient x1="57.407249" gradientTransform="matrix(0.242927, 0, 0, -0.242927, -3.433629, 98.930669)" y1="334.991652" x2="31.083405" gradientUnits="userSpaceOnUse" y2="289.397884" id="acf0ea2b6f"><stop stop-opacity="1" stop-color="rgb(0%, 32.199097%, 79.998779%)" offset="0"/><stop stop-opacity="1" stop-color="rgb(0%, 32.199097%, 79.998779%)" offset="0.125"/><stop stop-opacity="1" stop-color="rgb(0.0335693%, 32.244873%, 80.046082%)" offset="0.140625"/><stop stop-opacity="1" stop-color="rgb(0.15564%, 32.40509%, 80.209351%)" offset="0.148438"/><stop stop-opacity="1" stop-color="rgb(0.331116%, 32.635498%, 80.444336%)" offset="0.15625"/><stop stop-opacity="1" stop-color="rgb(0.505066%, 32.86438%, 80.677795%)" offset="0.164063"/><stop stop-opacity="1" stop-color="rgb(0.679016%, 33.093262%, 80.912781%)" offset="0.171875"/><stop stop-opacity="1" stop-color="rgb(0.854492%, 33.323669%, 81.14624%)" offset="0.179688"/><stop stop-opacity="1" stop-color="rgb(1.028442%, 33.552551%, 81.3797%)" offset="0.1875"/><stop stop-opacity="1" stop-color="rgb(1.202393%, 33.782959%, 81.614685%)" offset="0.195313"/><stop stop-opacity="1" stop-color="rgb(1.376343%, 34.011841%, 81.848145%)" offset="0.203125"/><stop stop-opacity="1" stop-color="rgb(1.551819%, 34.240723%, 82.08313%)" offset="0.210938"/><stop stop-opacity="1" stop-color="rgb(1.725769%, 34.47113%, 82.316589%)" offset="0.21875"/><stop stop-opacity="1" stop-color="rgb(1.899719%, 34.700012%, 82.550049%)" offset="0.226563"/><stop stop-opacity="1" stop-color="rgb(2.075195%, 34.928894%, 82.785034%)" offset="0.234375"/><stop stop-opacity="1" stop-color="rgb(2.249146%, 35.159302%, 83.018494%)" offset="0.242188"/><stop stop-opacity="1" stop-color="rgb(2.423096%, 35.388184%, 83.253479%)" offset="0.25"/><stop stop-opacity="1" stop-color="rgb(2.598572%, 35.617065%, 83.486938%)" offset="0.257813"/><stop stop-opacity="1" stop-color="rgb(2.772522%, 35.847473%, 83.721924%)" offset="0.265625"/><stop stop-opacity="1" stop-color="rgb(2.946472%, 36.076355%, 83.955383%)" offset="0.273438"/><stop stop-opacity="1" stop-color="rgb(3.120422%, 36.305237%, 84.188843%)" offset="0.28125"/><stop stop-opacity="1" stop-color="rgb(3.295898%, 36.535645%, 84.423828%)" offset="0.289063"/><stop stop-opacity="1" stop-color="rgb(3.469849%, 36.764526%, 84.657288%)" offset="0.296875"/><stop stop-opacity="1" stop-color="rgb(3.643799%, 36.993408%, 84.892273%)" offset="0.304688"/><stop stop-opacity="1" stop-color="rgb(3.819275%, 37.223816%, 85.125732%)" offset="0.3125"/><stop stop-opacity="1" stop-color="rgb(3.993225%, 37.452698%, 85.359192%)" offset="0.320313"/><stop stop-opacity="1" stop-color="rgb(4.167175%, 37.68158%, 85.594177%)" offset="0.328125"/><stop stop-opacity="1" stop-color="rgb(4.341125%, 37.911987%, 85.827637%)" offset="0.330504"/><stop stop-opacity="1" stop-color="rgb(4.429626%, 38.026428%, 85.945129%)" offset="0.335938"/><stop stop-opacity="1" stop-color="rgb(4.516602%, 38.140869%, 86.062622%)" offset="0.34375"/><stop stop-opacity="1" stop-color="rgb(4.690552%, 38.369751%, 86.296082%)" offset="0.351563"/><stop stop-opacity="1" stop-color="rgb(4.864502%, 38.600159%, 86.531067%)" offset="0.359375"/><stop stop-opacity="1" stop-color="rgb(5.039978%, 38.829041%, 86.764526%)" offset="0.367188"/><stop stop-opacity="1" stop-color="rgb(5.213928%, 39.059448%, 86.997986%)" offset="0.375"/><stop stop-opacity="1" stop-color="rgb(5.387878%, 39.28833%, 87.232971%)" offset="0.382813"/><stop stop-opacity="1" stop-color="rgb(5.563354%, 39.517212%, 87.466431%)" offset="0.390625"/><stop stop-opacity="1" stop-color="rgb(5.737305%, 39.74762%, 87.701416%)" offset="0.398438"/><stop stop-opacity="1" stop-color="rgb(5.911255%, 39.976501%, 87.934875%)" offset="0.40625"/><stop stop-opacity="1" stop-color="rgb(6.085205%, 40.205383%, 88.168335%)" offset="0.414063"/><stop stop-opacity="1" stop-color="rgb(6.260681%, 40.435791%, 88.40332%)" offset="0.421875"/><stop stop-opacity="1" stop-color="rgb(6.434631%, 40.664673%, 88.63678%)" offset="0.429688"/><stop stop-opacity="1" stop-color="rgb(6.608582%, 40.893555%, 88.871765%)" offset="0.4375"/><stop stop-opacity="1" stop-color="rgb(6.784058%, 41.123962%, 89.105225%)" offset="0.445313"/><stop stop-opacity="1" stop-color="rgb(6.958008%, 41.352844%, 89.34021%)" offset="0.453125"/><stop stop-opacity="1" stop-color="rgb(7.131958%, 41.581726%, 89.573669%)" offset="0.460938"/><stop stop-opacity="1" stop-color="rgb(7.305908%, 41.812134%, 89.807129%)" offset="0.46875"/><stop stop-opacity="1" stop-color="rgb(7.481384%, 42.041016%, 90.042114%)" offset="0.476563"/><stop stop-opacity="1" stop-color="rgb(7.655334%, 42.269897%, 90.275574%)" offset="0.484375"/><stop stop-opacity="1" stop-color="rgb(7.829285%, 42.500305%, 90.510559%)" offset="0.492188"/><stop stop-opacity="1" stop-color="rgb(8.004761%, 42.729187%, 90.744019%)" offset="0.5"/><stop stop-opacity="1" stop-color="rgb(8.178711%, 42.958069%, 90.977478%)" offset="0.507813"/><stop stop-opacity="1" stop-color="rgb(8.352661%, 43.188477%, 91.212463%)" offset="0.515625"/><stop stop-opacity="1" stop-color="rgb(8.528137%, 43.417358%, 91.445923%)" offset="0.523438"/><stop stop-opacity="1" stop-color="rgb(8.702087%, 43.64624%, 91.680908%)" offset="0.53125"/><stop stop-opacity="1" stop-color="rgb(8.876038%, 43.876648%, 91.914368%)" offset="0.539063"/><stop stop-opacity="1" stop-color="rgb(9.049988%, 44.10553%, 92.149353%)" offset="0.546875"/><stop stop-opacity="1" stop-color="rgb(9.225464%, 44.335938%, 92.382812%)" offset="0.554688"/><stop stop-opacity="1" stop-color="rgb(9.399414%, 44.564819%, 92.616272%)" offset="0.5625"/><stop stop-opacity="1" stop-color="rgb(9.573364%, 44.793701%, 92.851257%)" offset="0.570313"/><stop stop-opacity="1" stop-color="rgb(9.74884%, 45.024109%, 93.084717%)" offset="0.578125"/><stop stop-opacity="1" stop-color="rgb(9.922791%, 45.252991%, 93.319702%)" offset="0.585938"/><stop stop-opacity="1" stop-color="rgb(10.096741%, 45.481873%, 93.553162%)" offset="0.59375"/><stop stop-opacity="1" stop-color="rgb(10.270691%, 45.71228%, 93.786621%)" offset="0.601563"/><stop stop-opacity="1" stop-color="rgb(10.446167%, 45.941162%, 94.021606%)" offset="0.609375"/><stop stop-opacity="1" stop-color="rgb(10.620117%, 46.170044%, 94.255066%)" offset="0.617188"/><stop stop-opacity="1" stop-color="rgb(10.794067%, 46.400452%, 94.490051%)" offset="0.625"/><stop stop-opacity="1" stop-color="rgb(10.969543%, 46.629333%, 94.723511%)" offset="0.632813"/><stop stop-opacity="1" stop-color="rgb(11.143494%, 46.858215%, 94.958496%)" offset="0.640625"/><stop stop-opacity="1" stop-color="rgb(11.317444%, 47.088623%, 95.191956%)" offset="0.648438"/><stop stop-opacity="1" stop-color="rgb(11.49292%, 47.317505%, 95.425415%)" offset="0.65625"/><stop stop-opacity="1" stop-color="rgb(11.66687%, 47.546387%, 95.6604%)" offset="0.664063"/><stop stop-opacity="1" stop-color="rgb(11.84082%, 47.776794%, 95.89386%)" offset="0.669496"/><stop stop-opacity="1" stop-color="rgb(11.927795%, 47.891235%, 96.011353%)" offset="0.671875"/><stop stop-opacity="1" stop-color="rgb(12.014771%, 48.005676%, 96.128845%)" offset="0.679688"/><stop stop-opacity="1" stop-color="rgb(12.190247%, 48.234558%, 96.362305%)" offset="0.6875"/><stop stop-opacity="1" stop-color="rgb(12.364197%, 48.464966%, 96.595764%)" offset="0.695313"/><stop stop-opacity="1" stop-color="rgb(12.538147%, 48.693848%, 96.83075%)" offset="0.703125"/><stop stop-opacity="1" stop-color="rgb(12.713623%, 48.922729%, 97.064209%)" offset="0.710938"/><stop stop-opacity="1" stop-color="rgb(12.887573%, 49.153137%, 97.299194%)" offset="0.71875"/><stop stop-opacity="1" stop-color="rgb(13.061523%, 49.382019%, 97.532654%)" offset="0.726562"/><stop stop-opacity="1" stop-color="rgb(13.237%, 49.612427%, 97.767639%)" offset="0.734375"/><stop stop-opacity="1" stop-color="rgb(13.41095%, 49.841309%, 98.001099%)" offset="0.742188"/><stop stop-opacity="1" stop-color="rgb(13.5849%, 50.07019%, 98.234558%)" offset="0.75"/><stop stop-opacity="1" stop-color="rgb(13.75885%, 50.300598%, 98.469543%)" offset="0.757812"/><stop stop-opacity="1" stop-color="rgb(13.934326%, 50.52948%, 98.703003%)" offset="0.765625"/><stop stop-opacity="1" stop-color="rgb(14.108276%, 50.758362%, 98.937988%)" offset="0.773438"/><stop stop-opacity="1" stop-color="rgb(14.282227%, 50.98877%, 99.171448%)" offset="0.78125"/><stop stop-opacity="1" stop-color="rgb(14.457703%, 51.217651%, 99.404907%)" offset="0.789062"/><stop stop-opacity="1" stop-color="rgb(14.631653%, 51.446533%, 99.639893%)" offset="0.796875"/><stop stop-opacity="1" stop-color="rgb(14.808655%, 51.679993%, 99.87793%)" offset="0.8125"/><stop stop-opacity="1" stop-color="rgb(14.898682%, 51.799011%, 100%)" offset="0.875"/><stop stop-opacity="1" stop-color="rgb(14.898682%, 51.799011%, 100%)" offset="1"/></linearGradient></defs><g clip-path="url(#8f9d44ad3d)"><g clip-path="url(#2d0db0f9a6)"><path fill="url(#acf0ea2b6f)" d="M 1.886719 27.339844 L 1.886719 17.453125 L 10.339844 17.453125 L 10.339844 27.339844 Z M 1.886719 27.339844 " fill-rule="nonzero"/></g></g><path fill="#2684ff" d="M 10.4375 9.753906 C 8.226562 13.175781 7.960938 17.5 9.757812 21.167969 L 12.695312 27.046875 C 12.792969 27.21875 12.964844 27.339844 13.160156 27.339844 L 19.253906 27.339844 C 19.546875 27.339844 19.789062 27.097656 19.789062 26.804688 C 19.789062 26.734375 19.765625 26.636719 19.742188 26.5625 C 19.742188 26.5625 11.53125 10.140625 11.335938 9.726562 C 11.214844 9.484375 10.921875 9.386719 10.679688 9.507812 C 10.558594 9.582031 10.484375 9.65625 10.4375 9.753906 Z M 10.4375 9.753906 " fill-opacity="1" fill-rule="nonzero"/><path fill="#0052cc" d="M 82.003906 16.796875 C 82.003906 18.960938 83 20.683594 86.933594 21.460938 C 89.292969 21.945312 89.777344 22.335938 89.777344 23.113281 C 89.777344 23.867188 89.292969 24.375 87.640625 24.375 C 85.648438 24.351562 83.679688 23.816406 81.929688 22.820312 L 81.929688 26.34375 C 83.121094 26.925781 84.675781 27.582031 87.589844 27.582031 C 91.695312 27.582031 93.347656 25.738281 93.347656 23.015625 M 93.324219 23.015625 C 93.324219 20.441406 91.964844 19.226562 88.101562 18.402344 C 85.988281 17.9375 85.453125 17.453125 85.453125 16.796875 C 85.453125 15.945312 86.207031 15.582031 87.617188 15.582031 C 89.316406 15.582031 90.992188 16.09375 92.570312 16.820312 L 92.570312 13.421875 C 91.039062 12.714844 89.386719 12.375 87.710938 12.425781 C 83.898438 12.425781 81.929688 14.078125 81.929688 16.796875 " fill-opacity="1" fill-rule="nonzero"/><path fill="#0052cc" d="M 134.863281 12.644531 L 134.863281 27.339844 L 138 27.339844 L 138 16.140625 L 139.308594 19.105469 L 143.753906 27.339844 L 147.691406 27.339844 L 147.691406 12.644531 L 144.558594 12.644531 L 144.558594 22.140625 L 143.367188 19.371094 L 139.796875 12.644531 Z M 134.863281 12.644531 " fill-opacity="1" fill-rule="nonzero"/><path fill="#0052cc" d="M 111.519531 12.644531 L 114.945312 12.644531 L 114.945312 27.339844 L 111.519531 27.339844 Z M 111.519531 12.644531 " fill-opacity="1" fill-rule="nonzero"/><path fill="#0052cc" d="M 107.582031 23.015625 C 107.582031 20.441406 106.222656 19.226562 102.359375 18.402344 C 100.246094 17.9375 99.714844 17.453125 99.714844 16.796875 C 99.714844 15.945312 100.464844 15.582031 101.875 15.582031 C 103.574219 15.582031 105.25 16.09375 106.832031 16.820312 L 106.832031 13.421875 C 105.300781 12.714844 103.648438 12.375 101.972656 12.425781 C 98.160156 12.425781 96.191406 14.078125 96.191406 16.796875 C 96.191406 18.960938 97.1875 20.683594 101.121094 21.460938 C 103.476562 21.945312 103.964844 22.335938 103.964844 23.113281 C 103.964844 23.867188 103.476562 24.375 101.828125 24.375 C 99.835938 24.351562 97.867188 23.816406 96.117188 22.820312 L 96.117188 26.34375 C 97.308594 26.925781 98.863281 27.582031 101.777344 27.582031 C 105.957031 27.558594 107.582031 25.738281 107.582031 23.015625 " fill-opacity="1" fill-rule="nonzero"/><path fill="#0052cc" d="M 55.402344 12.644531 L 55.402344 27.339844 L 62.449219 27.339844 L 63.542969 24.15625 L 58.851562 24.15625 L 58.851562 12.644531 Z M 55.402344 12.644531 " fill-opacity="1" fill-rule="nonzero"/><path fill="#0052cc" d="M 41.507812 12.644531 L 41.507812 15.824219 L 45.320312 15.824219 L 45.320312 27.339844 L 48.769531 27.339844 L 48.769531 15.824219 L 52.828125 15.824219 L 52.828125 12.644531 Z M 41.507812 12.644531 " fill-opacity="1" fill-rule="nonzero"/><path fill="#0052cc" d="M 36.527344 12.644531 L 32.007812 12.644531 L 26.882812 27.339844 L 30.792969 27.339844 L 31.523438 24.863281 C 33.320312 25.398438 35.214844 25.398438 37.011719 24.863281 L 37.742188 27.339844 L 41.652344 27.339844 Z M 34.269531 22.214844 C 33.636719 22.214844 33.003906 22.117188 32.375 21.945312 L 34.269531 15.535156 L 36.164062 21.945312 C 35.53125 22.140625 34.898438 22.214844 34.269531 22.214844 Z M 34.269531 22.214844 " fill-opacity="1" fill-rule="nonzero"/><path fill="#0052cc" d="M 74.570312 12.644531 L 70.050781 12.644531 L 64.925781 27.339844 L 68.835938 27.339844 L 69.566406 24.863281 C 71.363281 25.398438 73.257812 25.398438 75.054688 24.863281 L 75.785156 27.339844 L 79.695312 27.339844 Z M 72.3125 22.214844 C 71.679688 22.214844 71.046875 22.117188 70.417969 21.945312 L 72.3125 15.535156 L 74.207031 21.945312 C 73.574219 22.140625 72.941406 22.214844 72.3125 22.214844 Z M 72.3125 22.214844 " fill-opacity="1" fill-rule="nonzero"/><path fill="#0052cc" d="M 127.285156 12.644531 L 122.765625 12.644531 L 117.640625 27.339844 L 121.550781 27.339844 L 122.28125 24.863281 C 124.078125 25.398438 125.972656 25.398438 127.769531 24.863281 L 128.5 27.339844 L 132.410156 27.339844 Z M 125.027344 22.214844 C 124.394531 22.214844 123.761719 22.117188 123.132812 21.945312 L 125.027344 15.535156 L 126.921875 21.945312 C 126.289062 22.140625 125.65625 22.214844 125.027344 22.214844 Z M 125.027344 22.214844 " fill-opacity="1" fill-rule="nonzero"/></svg>