<svg xmlns="http://www.w3.org/2000/svg" xmlns:xlink="http://www.w3.org/1999/xlink" width="200" zoomAndPan="magnify" viewBox="0 0 150 37.5" height="50" preserveAspectRatio="xMidYMid meet" version="1.0"><defs><clipPath id="462ce0eb72"><path d="M 57 7 L 149.011719 7 L 149.011719 30 L 57 30 Z M 57 7 " clip-rule="nonzero"/></clipPath></defs><path fill="#ef3742" d="M 18.710938 22.378906 C 17.453125 25.140625 14.917969 26.789062 11.960938 26.789062 C 7.722656 26.789062 4.300781 23.070312 4.300781 18.511719 C 4.300781 13.957031 7.75 10.234375 11.960938 10.234375 C 15.015625 10.234375 17.476562 11.863281 18.710938 14.644531 L 18.757812 14.769531 L 21.9375 14.769531 L 21.839844 14.449219 C 20.433594 10.015625 16.640625 7.253906 11.960938 7.253906 C 6.046875 7.253906 1.269531 12.28125 1.269531 18.464844 C 1.269531 24.644531 6.046875 29.695312 11.960938 29.695312 C 16.589844 29.695312 20.386719 26.9375 21.839844 22.480469 L 21.9375 22.160156 L 18.785156 22.160156 C 18.785156 22.207031 18.710938 22.378906 18.710938 22.378906 Z M 31.347656 26.886719 C 28.589844 26.886719 26.320312 24.425781 26.320312 21.394531 C 26.320312 18.316406 28.5625 15.828125 31.347656 15.828125 C 34.128906 15.828125 36.445312 18.390625 36.445312 21.394531 C 36.398438 24.375 34.082031 26.886719 31.347656 26.886719 M 36.519531 15.382812 C 35.238281 13.832031 33.34375 12.921875 31.347656 12.894531 C 26.8125 12.894531 23.265625 16.617188 23.265625 21.371094 C 23.265625 26.101562 26.8125 29.820312 31.347656 29.820312 C 33.367188 29.792969 35.261719 28.882812 36.519531 27.308594 L 36.519531 29.425781 L 39.476562 29.425781 L 39.476562 13.289062 L 36.519531 13.289062 C 36.519531 13.289062 36.519531 15.382812 36.519531 15.382812 Z M 49.476562 12.894531 C 47.851562 12.871094 46.300781 13.511719 45.167969 14.671875 L 45.167969 13.289062 L 42.210938 13.289062 L 42.210938 29.425781 L 45.265625 29.425781 L 45.265625 19.621094 C 45.265625 17.378906 46.890625 15.753906 49.132812 15.753906 C 51.027344 15.753906 52.359375 16.886719 52.65625 18.757812 L 52.65625 18.808594 L 55.683594 18.785156 L 55.683594 18.710938 C 55.289062 15.136719 52.925781 12.894531 49.476562 12.894531 M 11.269531 16.050781 L 13.265625 16.050781 L 13.265625 21.886719 L 11.269531 21.886719 Z M 15.949219 15.804688 C 16.589844 15.804688 17.109375 16.320312 17.109375 16.960938 C 17.109375 17.601562 16.589844 18.117188 15.949219 18.117188 C 15.3125 18.117188 14.792969 17.601562 14.792969 16.960938 C 14.816406 16.320312 15.335938 15.804688 15.949219 15.804688 Z M 8.5625 15.804688 C 9.203125 15.804688 9.71875 16.320312 9.71875 16.960938 C 9.71875 17.601562 9.203125 18.117188 8.5625 18.117188 C 7.921875 18.117188 7.402344 17.601562 7.402344 16.960938 C 7.402344 16.320312 7.921875 15.804688 8.5625 15.804688 Z M 8.5625 15.804688 " fill-opacity="1" fill-rule="nonzero"/><g clip-path="url(#462ce0eb72)"><path fill="#00a0dd" d="M 118.867188 29.671875 C 115.027344 29.671875 112.242188 26.886719 112.242188 23.046875 L 112.242188 13.464844 L 114.925781 13.464844 L 114.925781 23.046875 C 114.925781 25.433594 116.503906 27.035156 118.867188 27.035156 C 121.207031 27.035156 122.785156 25.433594 122.785156 23.046875 L 122.785156 13.464844 L 125.496094 13.464844 L 125.496094 23.046875 C 125.496094 26.863281 122.710938 29.671875 118.867188 29.671875 Z M 87.660156 29.671875 C 83.816406 29.671875 81.03125 26.886719 81.03125 23.046875 L 81.03125 13.464844 L 83.71875 13.464844 L 83.71875 23.046875 C 83.71875 25.433594 85.292969 27.035156 87.660156 27.035156 C 90 27.035156 91.574219 25.433594 91.574219 23.046875 L 91.574219 13.464844 L 94.285156 13.464844 L 94.285156 23.046875 C 94.261719 26.863281 91.476562 29.671875 87.660156 29.671875 Z M 135.027344 19.203125 C 131.851562 18.710938 131.257812 18.292969 131.257812 17.429688 C 131.257812 16.320312 132.710938 15.457031 134.585938 15.457031 C 136.53125 15.457031 137.8125 16.320312 138.105469 17.773438 L 138.15625 17.945312 L 141.234375 17.945312 L 141.210938 17.675781 C 140.867188 14.546875 138.328125 12.574219 134.585938 12.574219 C 130.199219 12.574219 128.203125 15.113281 128.203125 17.453125 C 128.203125 20.558594 130.617188 21.542969 134.511719 22.085938 C 138.28125 22.578125 138.574219 23.339844 138.574219 24.277344 C 138.574219 25.433594 137.320312 26.59375 134.878906 26.59375 C 132.664062 26.59375 131.039062 25.507812 130.71875 23.832031 L 130.691406 23.660156 L 127.636719 23.660156 L 127.664062 23.933594 C 128.105469 27.308594 130.9375 29.5 134.878906 29.5 C 138.847656 29.5 141.53125 27.355469 141.53125 24.152344 C 141.554688 20.53125 138.722656 19.769531 135.027344 19.203125 M 67.285156 18.832031 L 67.285156 21.519531 L 74.011719 21.519531 L 74.085938 21.394531 C 74.28125 20.976562 74.429688 20.53125 74.503906 20.089844 C 74.578125 19.671875 74.652344 19.25 74.652344 18.832031 Z M 75.859375 18.832031 C 75.710938 23.339844 72.460938 26.738281 68.347656 26.738281 C 64.058594 26.738281 60.5625 23.019531 60.5625 18.511719 C 60.5625 13.957031 64.058594 10.261719 68.347656 10.261719 C 71.253906 10.261719 73.742188 11.910156 75.023438 14.671875 L 75.070312 14.792969 L 78.347656 14.792969 L 78.25 14.472656 C 76.695312 10.039062 72.828125 7.179688 68.371094 7.179688 C 62.382812 7.179688 57.53125 12.257812 57.53125 18.464844 C 57.53125 24.671875 62.382812 29.746094 68.371094 29.746094 C 71.105469 29.746094 73.714844 28.660156 75.636719 26.714844 C 77.707031 24.621094 78.839844 21.765625 78.765625 18.808594 C 78.765625 18.832031 75.859375 18.832031 75.859375 18.832031 Z M 104.308594 12.894531 C 102.683594 12.871094 101.132812 13.511719 100 14.671875 L 100 13.289062 L 97.042969 13.289062 L 97.042969 29.425781 L 100.097656 29.425781 L 100.097656 19.621094 C 100.097656 17.378906 101.722656 15.753906 103.964844 15.753906 C 105.863281 15.753906 107.191406 16.886719 107.488281 18.757812 L 107.488281 18.808594 L 110.519531 18.785156 L 110.519531 18.710938 C 110.097656 15.136719 107.757812 12.894531 104.308594 12.894531 M 146.605469 13.019531 C 146.582031 12.96875 146.554688 12.921875 146.507812 12.871094 C 146.484375 12.824219 146.433594 12.796875 146.382812 12.773438 C 146.628906 12.722656 146.875 12.601562 147.050781 12.402344 C 147.195312 12.207031 147.269531 11.984375 147.269531 11.738281 C 147.296875 11.441406 147.171875 11.148438 146.925781 10.976562 C 146.605469 10.777344 146.234375 10.679688 145.867188 10.703125 L 144.660156 10.703125 L 144.660156 14.421875 L 145.300781 14.421875 L 145.300781 12.945312 L 145.621094 12.945312 C 145.667969 12.945312 145.71875 12.945312 145.792969 12.96875 C 145.816406 12.996094 145.867188 13.019531 145.890625 13.042969 L 146.730469 14.300781 C 146.777344 14.375 146.851562 14.398438 146.925781 14.398438 L 147.542969 14.398438 Z M 145.792969 12.453125 L 145.300781 12.453125 L 145.300781 11.171875 L 145.84375 11.171875 C 145.964844 11.171875 146.089844 11.171875 146.210938 11.222656 C 146.308594 11.246094 146.382812 11.269531 146.457031 11.34375 C 146.507812 11.394531 146.554688 11.46875 146.582031 11.542969 C 146.605469 11.640625 146.628906 11.714844 146.628906 11.8125 C 146.628906 11.984375 146.582031 12.183594 146.433594 12.304688 C 146.261719 12.429688 146.015625 12.476562 145.792969 12.453125 Z M 68.222656 14.570312 C 68.886719 14.570312 69.429688 15.113281 69.429688 15.777344 C 69.429688 16.445312 68.886719 16.984375 68.222656 16.984375 C 67.558594 16.984375 67.015625 16.445312 67.015625 15.777344 C 67.015625 15.113281 67.558594 14.570312 68.222656 14.570312 Z M 72.804688 14.570312 C 73.46875 14.570312 74.011719 15.113281 74.011719 15.777344 C 74.011719 16.445312 73.46875 16.984375 72.804688 16.984375 C 72.140625 16.984375 71.597656 16.445312 71.597656 15.777344 C 71.597656 15.113281 72.140625 14.570312 72.804688 14.570312 Z M 145.964844 15.65625 C 144.242188 15.65625 142.863281 14.277344 142.863281 12.550781 C 142.863281 10.828125 144.242188 9.449219 145.964844 9.449219 C 147.691406 9.449219 149.070312 10.828125 149.070312 12.550781 C 149.070312 14.277344 147.691406 15.65625 145.964844 15.65625 Z M 145.964844 9.964844 C 144.535156 9.964844 143.355469 11.121094 143.378906 12.574219 C 143.378906 14.003906 144.535156 15.1875 145.988281 15.164062 C 147.417969 15.164062 148.578125 14.003906 148.578125 12.550781 C 148.578125 11.121094 147.394531 9.964844 145.964844 9.964844 Z M 145.964844 9.964844 " fill-opacity="1" fill-rule="nonzero"/></g></svg>