<svg xmlns="http://www.w3.org/2000/svg" xmlns:xlink="http://www.w3.org/1999/xlink" width="200" zoomAndPan="magnify" viewBox="0 0 150 37.5" height="50" preserveAspectRatio="xMidYMid meet" version="1.0"><defs><clipPath id="c2da694aa0"><path d="M 23.589844 0.742188 L 126.46875 0.742188 L 126.46875 36.269531 L 23.589844 36.269531 Z M 23.589844 0.742188 " clip-rule="nonzero"/></clipPath></defs><g clip-path="url(#c2da694aa0)"><path fill="#000000" d="M 35.605469 1.097656 L 35.605469 4.074219 L 28.035156 4.074219 L 28.035156 7.492188 L 35.023438 7.492188 L 35.023438 10.34375 L 28.035156 10.34375 L 28.035156 14.085938 L 35.691406 14.085938 L 35.691406 17.054688 L 24.847656 17.054688 L 24.847656 1.097656 Z M 62.878906 17.054688 L 66.265625 17.054688 L 61.296875 1.097656 L 56.65625 1.097656 L 51.6875 17.054688 L 55.019531 17.054688 L 56.03125 13.6875 L 61.878906 13.6875 Z M 56.882812 10.808594 L 58.941406 3.964844 L 60.996094 10.808594 Z M 66.902344 11.121094 L 66.902344 7.007812 C 66.902344 3.425781 69.429688 0.742188 73.34375 0.742188 C 77.300781 0.742188 79.652344 3.335938 79.652344 6.898438 L 76.441406 6.898438 C 76.398438 4.898438 75.296875 3.691406 73.351562 3.691406 C 71.351562 3.691406 70.140625 5.03125 70.140625 7.183594 L 70.140625 10.96875 C 70.140625 13.140625 71.347656 14.484375 73.351562 14.460938 C 75.308594 14.484375 76.40625 13.273438 76.441406 11.253906 L 79.652344 11.253906 C 79.652344 14.855469 77.300781 17.433594 73.34375 17.40625 C 69.429688 17.425781 66.902344 14.746094 66.902344 11.121094 Z M 92.851562 1.097656 L 92.851562 4.074219 L 88.476562 4.074219 L 88.476562 17.054688 L 85.257812 17.054688 L 85.257812 4.074219 L 80.878906 4.074219 L 80.878906 1.097656 Z M 35.710938 24.667969 L 35.710938 24.972656 L 32.476562 24.972656 L 32.476562 24.777344 C 32.476562 23.433594 31.527344 22.554688 29.726562 22.554688 C 28.230469 22.554688 27.351562 23.300781 27.375 24.269531 C 27.398438 25.542969 28.9375 25.875 30.609375 26.292969 L 31.136719 26.421875 C 34.28125 27.214844 36.082031 28.597656 36.105469 31.214844 C 36.125 34.355469 33.6875 36.246094 30.160156 36.246094 C 26.253906 36.246094 23.660156 34.136719 23.660156 30.402344 L 23.660156 30.378906 L 26.890625 30.378906 L 26.890625 30.535156 C 26.890625 32.335938 28.175781 33.316406 30.167969 33.316406 C 31.753906 33.316406 32.851562 32.679688 32.851562 31.511719 C 32.851562 30.304688 31.898438 29.929688 29.707031 29.375 L 29.179688 29.242188 C 25.902344 28.425781 24.132812 27.171875 24.132812 24.535156 C 24.113281 21.722656 26.511719 19.632812 29.804688 19.632812 C 33.425781 19.632812 35.710938 21.742188 35.710938 24.667969 Z M 37.757812 29.988281 L 37.757812 25.875 C 37.757812 22.289062 40.289062 19.609375 44.203125 19.609375 C 48.160156 19.609375 50.511719 22.203125 50.511719 25.765625 L 47.300781 25.765625 C 47.257812 23.765625 46.15625 22.554688 44.210938 22.554688 C 42.210938 22.554688 41 23.894531 41 26.050781 L 41 29.828125 C 41 32.003906 42.207031 33.347656 44.210938 33.324219 C 46.167969 33.347656 47.265625 32.136719 47.300781 30.113281 L 50.511719 30.113281 C 50.511719 33.71875 48.160156 36.296875 44.203125 36.269531 C 40.289062 36.292969 37.757812 33.613281 37.757812 29.988281 Z M 55.949219 35.929688 L 52.738281 35.929688 L 52.738281 19.960938 L 55.949219 19.960938 Z M 69.578125 19.972656 L 69.578125 22.929688 L 62.007812 22.929688 L 62.007812 26.355469 L 68.996094 26.355469 L 68.996094 29.210938 L 62.007812 29.210938 L 62.007812 32.945312 L 69.664062 32.945312 L 69.664062 35.929688 L 58.816406 35.929688 L 58.816406 19.960938 Z M 81.3125 19.972656 L 81.3125 30.105469 L 75.042969 19.960938 L 71.964844 19.960938 L 71.964844 35.929688 L 75.132812 35.929688 L 75.132812 25.773438 L 81.398438 35.929688 L 84.476562 35.929688 L 84.476562 19.960938 Z M 86.828125 29.988281 L 86.828125 25.875 C 86.828125 22.289062 89.355469 19.609375 93.269531 19.609375 C 97.230469 19.609375 99.582031 22.203125 99.582031 25.765625 L 96.371094 25.765625 C 96.328125 23.765625 95.226562 22.554688 93.277344 22.554688 C 91.277344 22.554688 90.066406 23.894531 90.066406 26.050781 L 90.066406 29.828125 C 90.066406 32.003906 91.277344 33.347656 93.277344 33.324219 C 95.234375 33.347656 96.335938 32.136719 96.371094 30.113281 L 99.582031 30.113281 C 99.582031 33.71875 97.230469 36.296875 93.269531 36.269531 C 89.355469 36.292969 86.828125 33.613281 86.828125 29.988281 Z M 112.566406 19.960938 L 112.566406 22.929688 L 104.996094 22.929688 L 104.996094 26.355469 L 111.984375 26.355469 L 111.984375 29.210938 L 104.996094 29.210938 L 104.996094 32.945312 L 112.652344 32.945312 L 112.652344 35.929688 L 101.808594 35.929688 L 101.808594 19.960938 Z M 126.007812 24.667969 L 126.007812 24.972656 L 122.777344 24.972656 L 122.777344 24.777344 C 122.777344 23.433594 121.824219 22.554688 120.027344 22.554688 C 118.53125 22.554688 117.648438 23.300781 117.675781 24.269531 C 117.695312 25.542969 119.234375 25.875 120.90625 26.292969 L 121.433594 26.421875 C 124.578125 27.214844 126.382812 28.597656 126.402344 31.214844 C 126.425781 34.355469 123.984375 36.246094 120.457031 36.246094 C 116.542969 36.246094 113.949219 34.136719 113.949219 30.402344 L 113.949219 30.378906 L 117.183594 30.378906 L 117.183594 30.535156 C 117.183594 32.335938 118.480469 33.304688 120.457031 33.304688 C 122.042969 33.304688 123.140625 32.667969 123.140625 31.5 C 123.140625 30.292969 122.1875 29.917969 119.996094 29.363281 L 119.46875 29.230469 C 116.191406 28.417969 114.433594 27.164062 114.410156 24.527344 C 114.390625 21.714844 116.789062 19.625 120.082031 19.625 C 123.71875 19.632812 126.007812 21.742188 126.007812 24.667969 Z M 41.898438 8.855469 L 41.746094 8.988281 C 39.496094 7.105469 37.65625 4.503906 37.65625 1.097656 L 40.996094 1.097656 C 40.996094 3.460938 41.917969 5.222656 44.128906 7.042969 L 44.027344 7.125 Z M 46.515625 8.984375 C 46.472656 9.019531 46.429688 9.058594 46.382812 9.097656 L 44.242188 10.832031 C 44.199219 10.863281 44.160156 10.902344 44.121094 10.933594 C 46.328125 12.75 47.28125 14.699219 47.261719 17.054688 L 50.601562 17.054688 C 50.625 13.679688 48.753906 10.875 46.515625 8.984375 Z M 46.515625 8.984375 " fill-opacity="1" fill-rule="nonzero"/></g><path fill="#a275ff" d="M 47.261719 1.097656 C 47.261719 3.457031 46.34375 5.21875 44.132812 7.039062 L 44.03125 7.121094 L 41.890625 8.859375 L 41.738281 8.988281 C 39.5 10.890625 37.648438 13.683594 37.648438 17.054688 L 40.996094 17.054688 C 40.976562 14.703125 41.929688 12.753906 44.128906 10.9375 C 44.167969 10.902344 44.207031 10.867188 44.25 10.835938 L 46.390625 9.097656 C 46.4375 9.0625 46.476562 9.023438 46.519531 8.988281 C 48.769531 7.105469 50.613281 4.503906 50.613281 1.097656 Z M 47.261719 1.097656 " fill-opacity="1" fill-rule="nonzero"/></svg>