<svg xmlns="http://www.w3.org/2000/svg" xmlns:xlink="http://www.w3.org/1999/xlink" width="200" zoomAndPan="magnify" viewBox="0 0 150 37.5" height="50" preserveAspectRatio="xMidYMid meet" version="1.0"><defs><clipPath id="f12c234583"><path d="M 145 3.699219 L 148 3.699219 L 148 7 L 145 7 Z M 145 3.699219 " clip-rule="nonzero"/></clipPath><clipPath id="2e7999babd"><path d="M 43 4 L 61 4 L 61 33.304688 L 43 33.304688 Z M 43 4 " clip-rule="nonzero"/></clipPath><clipPath id="987f3b742f"><path d="M 2 3.699219 L 20 3.699219 L 20 33.304688 L 2 33.304688 Z M 2 3.699219 " clip-rule="nonzero"/></clipPath></defs><g clip-path="url(#f12c234583)"><path fill="#ff8000" d="M 146.5625 5.09375 C 146.683594 5.09375 146.761719 5.019531 146.761719 4.890625 C 146.761719 4.769531 146.683594 4.703125 146.5625 4.703125 L 146.371094 4.703125 L 146.371094 5.09375 Z M 146.140625 4.53125 L 146.609375 4.53125 C 146.839844 4.53125 146.992188 4.671875 146.992188 4.890625 C 146.992188 5.074219 146.871094 5.179688 146.769531 5.207031 L 146.769531 5.210938 C 146.769531 5.210938 146.785156 5.222656 146.8125 5.277344 L 147.046875 5.710938 L 146.792969 5.710938 L 146.566406 5.253906 L 146.371094 5.253906 L 146.371094 5.710938 L 146.140625 5.710938 Z M 146.535156 6.054688 C 147.054688 6.054688 147.457031 5.648438 147.457031 5.128906 C 147.457031 4.605469 147.054688 4.199219 146.535156 4.199219 C 146.019531 4.199219 145.625 4.605469 145.625 5.128906 C 145.625 5.648438 146.019531 6.054688 146.535156 6.054688 Z M 146.535156 3.984375 C 147.175781 3.984375 147.691406 4.492188 147.691406 5.128906 C 147.691406 5.761719 147.175781 6.269531 146.535156 6.269531 C 145.898438 6.269531 145.386719 5.761719 145.386719 5.128906 C 145.386719 4.492188 145.898438 3.984375 146.535156 3.984375 Z M 146.535156 3.984375 " fill-opacity="1" fill-rule="nonzero"/></g><path fill="#ff8000" d="M 140.78125 23.820312 L 140.78125 23.835938 C 140.816406 24.644531 140.539062 25.433594 140.039062 26.078125 L 140.058594 26.113281 L 140.078125 26.097656 C 139.617188 26.625 138.917969 26.90625 138.203125 26.851562 L 135.351562 26.851562 L 135.351562 20.929688 L 138.222656 20.929688 C 138.9375 20.871094 139.632812 21.152344 140.09375 21.683594 L 140.078125 21.664062 C 140.570312 22.277344 140.820312 23.042969 140.78125 23.820312 Z M 135.351562 9.96875 L 137.871094 9.96875 C 138.5 9.925781 139.117188 10.15625 139.558594 10.59375 L 139.59375 10.632812 C 140.03125 11.203125 140.242188 11.910156 140.1875 12.621094 C 140.257812 13.367188 140.019531 14.132812 139.558594 14.757812 L 139.558594 14.738281 C 139.140625 15.207031 138.523438 15.457031 137.890625 15.421875 L 135.351562 15.421875 Z M 146.671875 23.78125 L 146.671875 23.820312 C 146.671875 21.523438 145.597656 19.332031 143.746094 17.898438 L 143.78125 17.914062 L 143.816406 17.878906 C 145.347656 16.457031 146.210938 14.496094 146.210938 12.445312 L 146.210938 12.550781 C 146.285156 10.40625 145.519531 8.316406 144.058594 6.703125 L 144.097656 6.753906 C 142.523438 5.054688 140.265625 4.097656 137.90625 4.136719 L 129.867188 4.136719 C 129.589844 4.136719 129.367188 4.351562 129.367188 4.617188 C 129.367188 4.617188 129.367188 4.621094 129.367188 4.621094 L 129.367188 32.054688 C 129.367188 32.324219 129.589844 32.539062 129.867188 32.539062 L 138.242188 32.539062 C 140.78125 32.574219 143.207031 31.515625 144.839844 29.632812 L 144.820312 29.648438 C 146.132812 27.964844 146.789062 25.886719 146.671875 23.78125 " fill-opacity="1" fill-rule="nonzero"/><g clip-path="url(#2e7999babd)"><path fill="#ff8000" d="M 60.832031 24.160156 L 60.832031 4.640625 C 60.8125 4.394531 60.601562 4.207031 60.351562 4.207031 L 55.21875 4.207031 C 54.960938 4.207031 54.738281 4.386719 54.71875 4.640625 L 54.71875 24.160156 C 54.753906 24.964844 54.515625 25.757812 54.015625 26.382812 C 53.171875 27.261719 51.753906 27.328125 50.828125 26.527344 C 50.761719 26.484375 50.707031 26.429688 50.660156 26.367188 C 50.1875 25.738281 49.949219 24.972656 49.992188 24.195312 L 49.992188 4.640625 C 49.992188 4.398438 49.789062 4.207031 49.542969 4.207031 C 49.53125 4.207031 49.523438 4.207031 49.511719 4.207031 L 44.359375 4.207031 C 44.105469 4.1875 43.882812 4.367188 43.859375 4.613281 C 43.859375 4.617188 43.859375 4.617188 43.859375 4.621094 L 43.859375 24.160156 C 43.695312 26.507812 44.472656 28.820312 46.023438 30.613281 C 47.683594 32.222656 49.960938 33.089844 52.308594 33.003906 L 52.382812 33.003906 C 54.730469 33.089844 57.007812 32.222656 58.667969 30.613281 C 60.222656 28.816406 61 26.5 60.832031 24.160156 " fill-opacity="1" fill-rule="nonzero"/></g><path fill="#ff8000" d="M 103.003906 4.207031 C 103.003906 4.207031 103.003906 4.207031 103 4.207031 L 97.960938 4.207031 C 97.6875 4.207031 97.460938 4.421875 97.460938 4.6875 C 97.460938 4.691406 97.460938 4.691406 97.460938 4.691406 L 97.460938 15.3125 L 92.367188 15.3125 L 92.367188 4.691406 C 92.367188 4.425781 92.144531 4.207031 91.871094 4.207031 C 91.867188 4.207031 91.867188 4.207031 91.867188 4.207031 L 86.863281 4.207031 C 86.585938 4.207031 86.363281 4.421875 86.363281 4.6875 C 86.363281 4.691406 86.363281 4.691406 86.363281 4.691406 L 86.363281 32.050781 C 86.363281 32.320312 86.585938 32.539062 86.863281 32.539062 L 91.882812 32.539062 C 92.160156 32.539062 92.382812 32.324219 92.382812 32.054688 C 92.382812 32.054688 92.382812 32.054688 92.382812 32.050781 L 92.382812 21.054688 L 97.480469 21.054688 L 97.480469 32.050781 C 97.480469 32.320312 97.703125 32.539062 97.980469 32.539062 L 103 32.539062 C 103.277344 32.539062 103.5 32.324219 103.5 32.054688 C 103.5 32.054688 103.5 32.054688 103.5 32.050781 L 103.5 4.691406 C 103.503906 4.425781 103.28125 4.207031 103.003906 4.207031 Z M 103.003906 4.207031 " fill-opacity="1" fill-rule="nonzero"/><path fill="#ff8000" d="M 76.691406 23.820312 L 76.691406 23.835938 C 76.726562 24.644531 76.449219 25.433594 75.949219 26.078125 L 75.96875 26.113281 L 75.988281 26.097656 C 75.527344 26.625 74.828125 26.90625 74.117188 26.851562 L 71.261719 26.851562 L 71.261719 20.929688 L 74.132812 20.929688 C 74.847656 20.871094 75.546875 21.152344 76.003906 21.683594 L 75.988281 21.664062 C 76.484375 22.277344 76.734375 23.042969 76.691406 23.820312 Z M 71.261719 9.96875 L 73.78125 9.96875 C 74.414062 9.925781 75.03125 10.15625 75.46875 10.59375 L 75.503906 10.632812 C 75.941406 11.203125 76.152344 11.910156 76.097656 12.621094 C 76.167969 13.367188 75.929688 14.132812 75.46875 14.757812 L 75.46875 14.738281 C 75.054688 15.207031 74.4375 15.457031 73.800781 15.421875 L 71.261719 15.421875 Z M 82.621094 23.78125 L 82.621094 23.855469 C 82.621094 21.539062 81.546875 19.367188 79.695312 17.914062 L 79.691406 17.914062 L 79.730469 17.878906 C 81.253906 16.460938 82.117188 14.503906 82.121094 12.457031 C 82.140625 10.382812 81.378906 8.375 79.972656 6.808594 L 79.972656 6.828125 C 78.398438 5.128906 76.140625 4.171875 73.78125 4.207031 L 65.777344 4.207031 C 65.503906 4.207031 65.277344 4.421875 65.277344 4.6875 C 65.277344 4.691406 65.277344 4.691406 65.277344 4.691406 L 65.277344 32.054688 C 65.277344 32.324219 65.5 32.539062 65.777344 32.539062 L 74.191406 32.539062 C 76.730469 32.574219 79.15625 31.515625 80.789062 29.632812 L 80.769531 29.648438 C 82.082031 27.964844 82.738281 25.886719 82.621094 23.78125 " fill-opacity="1" fill-rule="nonzero"/><path fill="#ff8000" d="M 124.902344 24.160156 L 124.902344 4.640625 C 124.886719 4.40625 124.679688 4.207031 124.441406 4.207031 L 119.269531 4.207031 C 119.015625 4.1875 118.792969 4.367188 118.769531 4.613281 C 118.769531 4.617188 118.769531 4.617188 118.769531 4.621094 L 118.769531 24.160156 C 118.808594 24.949219 118.585938 25.71875 118.105469 26.347656 C 117.261719 27.246094 115.832031 27.316406 114.898438 26.507812 C 114.832031 26.464844 114.777344 26.410156 114.730469 26.347656 C 114.257812 25.71875 114.019531 24.953125 114.0625 24.175781 L 114.0625 4.640625 C 114.046875 4.386719 113.824219 4.207031 113.5625 4.207031 L 108.414062 4.207031 C 108.152344 4.207031 107.929688 4.386719 107.914062 4.640625 L 107.914062 24.214844 C 107.746094 26.507812 108.523438 28.824219 110.082031 30.617188 L 110.136719 30.671875 C 113.75 33.8125 119.253906 33.773438 122.808594 30.5625 L 122.734375 30.617188 C 124.296875 28.816406 125.070312 26.503906 124.902344 24.160156 " fill-opacity="1" fill-rule="nonzero"/><path fill="#ff8000" d="M 33.519531 15.296875 L 33.539062 15.296875 C 33.023438 15.832031 32.292969 16.117188 31.539062 16.085938 L 29.074219 16.085938 L 29.074219 9.96875 L 31.519531 9.96875 C 32.273438 9.933594 33.003906 10.222656 33.519531 10.757812 L 33.519531 10.738281 C 34.042969 11.347656 34.3125 12.121094 34.28125 12.910156 L 34.28125 12.945312 C 34.335938 13.808594 34.078125 14.632812 33.519531 15.296875 Z M 36.632812 20.339844 L 36.632812 20.335938 L 36.652344 20.320312 C 37.171875 19.976562 37.632812 19.566406 38.058594 19.117188 L 38.042969 19.152344 C 39.574219 17.433594 40.382812 15.214844 40.300781 12.945312 L 40.300781 12.890625 C 40.34375 10.648438 39.5 8.476562 37.949219 6.808594 L 38.042969 6.917969 C 36.5 5.230469 34.308594 4.238281 31.984375 4.171875 L 23.550781 4.171875 C 23.277344 4.171875 23.054688 4.386719 23.050781 4.652344 C 23.050781 4.65625 23.050781 4.65625 23.050781 4.65625 L 23.050781 32.054688 C 23.050781 32.324219 23.273438 32.539062 23.550781 32.539062 L 28.574219 32.539062 C 28.847656 32.539062 29.074219 32.324219 29.074219 32.058594 C 29.074219 32.054688 29.074219 32.054688 29.074219 32.054688 L 29.074219 21.917969 L 30.925781 21.917969 L 34.09375 32.25 C 34.148438 32.449219 34.355469 32.59375 34.578125 32.59375 L 39.914062 32.59375 C 40.074219 32.589844 40.222656 32.519531 40.320312 32.394531 C 40.394531 32.261719 40.394531 32.097656 40.320312 31.964844 L 36.632812 20.339844 " fill-opacity="1" fill-rule="nonzero"/><g clip-path="url(#987f3b742f)"><path fill="#ff8000" d="M 17.011719 6.148438 C 15.34375 4.535156 13.0625 3.664062 10.710938 3.742188 L 10.671875 3.742188 C 8.320312 3.65625 6.035156 4.527344 4.375 6.144531 L 4.429688 6.074219 C 2.835938 7.855469 2.019531 10.164062 2.148438 12.515625 L 2.148438 24.175781 C 1.984375 26.527344 2.761719 28.839844 4.316406 30.632812 C 5.976562 32.238281 8.253906 33.105469 10.597656 33.023438 L 10.691406 33.023438 C 13.046875 33.105469 15.332031 32.234375 16.992188 30.617188 C 18.550781 28.816406 19.328125 26.503906 19.160156 24.160156 L 19.160156 17.789062 C 19.144531 17.519531 18.917969 17.308594 18.640625 17.304688 L 11.230469 17.304688 C 10.949219 17.308594 10.714844 17.515625 10.691406 17.789062 L 10.691406 22.5625 C 10.710938 22.847656 10.933594 23.0625 11.230469 23.0625 L 13.265625 23.0625 L 13.265625 24.160156 C 13.308594 24.980469 13.0625 25.789062 12.5625 26.457031 L 12.582031 26.4375 C 12.136719 26.976562 11.453125 27.28125 10.746094 27.226562 L 10.710938 27.226562 C 10.007812 27.28125 9.320312 27.011719 8.875 26.472656 C 8.359375 25.824219 8.09375 25.015625 8.136719 24.195312 L 8.136719 12.605469 C 8.097656 11.761719 8.375 10.933594 8.914062 10.273438 C 9.359375 9.734375 10.042969 9.429688 10.746094 9.484375 L 10.785156 9.484375 C 11.488281 9.429688 12.171875 9.699219 12.621094 10.238281 L 12.65625 10.273438 C 13.125 10.957031 13.339844 11.769531 13.265625 12.585938 L 13.265625 13.664062 C 13.285156 13.914062 13.507812 14.09375 13.765625 14.09375 L 18.789062 14.09375 C 19.046875 14.09375 19.269531 13.914062 19.289062 13.664062 L 19.289062 12.570312 C 19.417969 10.21875 18.605469 7.921875 16.992188 6.148438 L 17.011719 6.148438 " fill-opacity="1" fill-rule="nonzero"/></g></svg>