<svg xmlns="http://www.w3.org/2000/svg" xmlns:xlink="http://www.w3.org/1999/xlink" width="200" zoomAndPan="magnify" viewBox="0 0 150 37.5" height="50" preserveAspectRatio="xMidYMid meet" version="1.0"><defs><clipPath id="7c6cdb71ee"><path d="M 1.753906 0.46875 L 12 0.46875 L 12 13 L 1.753906 13 Z M 1.753906 0.46875 " clip-rule="nonzero"/></clipPath><clipPath id="d486731e56"><path d="M 1.753906 17 L 16 17 L 16 36.734375 L 1.753906 36.734375 Z M 1.753906 17 " clip-rule="nonzero"/></clipPath><clipPath id="73a706d648"><path d="M 16 0.46875 L 38 0.46875 L 38 23 L 16 23 Z M 16 0.46875 " clip-rule="nonzero"/></clipPath><clipPath id="1e3ab113c0"><path d="M 29 28 L 38 28 L 38 36.734375 L 29 36.734375 Z M 29 28 " clip-rule="nonzero"/></clipPath></defs><path fill="#fa6624" d="M 52.640625 10.535156 L 46.875 10.535156 L 46.875 6.089844 L 52.640625 6.089844 Z M 46.875 12.765625 L 52.640625 12.765625 L 52.640625 30.503906 L 46.875 30.503906 Z M 46.875 12.765625 " fill-opacity="1" fill-rule="nonzero"/><path fill="#fa6624" d="M 55.308594 6.089844 L 61.074219 6.089844 L 61.074219 30.445312 L 55.308594 30.445312 Z M 55.308594 6.089844 " fill-opacity="1" fill-rule="nonzero"/><path fill="#fa6624" d="M 63.644531 6.089844 L 69.429688 6.089844 L 69.429688 30.445312 L 63.644531 30.445312 Z M 63.644531 6.089844 " fill-opacity="1" fill-rule="nonzero"/><path fill="#fa6624" d="M 89.308594 30.503906 L 83.707031 30.503906 L 83.707031 28.089844 C 83.128906 28.984375 82.335938 29.71875 81.40625 30.234375 C 80.472656 30.746094 79.429688 31.019531 78.367188 31.03125 C 73.289062 31.03125 71.875 28.089844 71.875 23.460938 L 71.875 12.765625 L 77.660156 12.765625 L 77.660156 22.914062 C 77.660156 25.226562 78.628906 26.121094 80.492188 26.121094 C 81.746094 26.121094 83.6875 25.328125 83.6875 22.203125 L 83.6875 12.664062 L 89.453125 12.664062 L 89.453125 30.402344 Z M 89.308594 30.503906 " fill-opacity="1" fill-rule="nonzero"/><path fill="#fa6624" d="M 91.433594 12.765625 L 97.035156 12.765625 L 97.035156 15.183594 C 97.566406 14.300781 98.308594 13.570312 99.195312 13.054688 C 100.085938 12.539062 101.085938 12.257812 102.113281 12.238281 C 103.15625 12.128906 104.207031 12.34375 105.125 12.851562 C 106.042969 13.359375 106.785156 14.136719 107.25 15.082031 C 107.84375 14.171875 108.664062 13.429688 109.628906 12.933594 C 110.589844 12.433594 111.667969 12.195312 112.75 12.238281 C 118.355469 12.238281 118.980469 16.523438 118.980469 19.890625 L 118.980469 30.503906 L 113.195312 30.503906 L 113.195312 20.074219 C 113.195312 18.207031 112.328125 17.050781 110.808594 17.050781 C 108.320312 17.050781 108.140625 18.917969 108.140625 21.859375 L 108.140625 30.503906 L 102.375 30.503906 L 102.375 20.355469 C 102.375 18.328125 101.75 16.96875 100.230469 16.96875 C 98.210938 16.96875 97.320312 18.125 97.320312 21.777344 L 97.320312 30.421875 L 91.535156 30.421875 L 91.351562 12.6875 Z M 91.433594 12.765625 " fill-opacity="1" fill-rule="nonzero"/><path fill="#fa6624" d="M 127.234375 10.535156 L 121.449219 10.535156 L 121.449219 6.089844 L 127.234375 6.089844 Z M 121.449219 12.765625 L 127.234375 12.765625 L 127.234375 30.402344 L 121.449219 30.402344 Z M 121.449219 12.765625 " fill-opacity="1" fill-rule="nonzero"/><path fill="#fa6624" d="M 137.972656 12.238281 C 139.816406 12.222656 141.625 12.757812 143.164062 13.769531 C 144.707031 14.785156 145.914062 16.238281 146.636719 17.941406 C 147.355469 19.644531 147.558594 21.523438 147.214844 23.339844 C 146.871094 25.160156 145.996094 26.832031 144.703125 28.152344 C 143.410156 29.472656 141.757812 30.378906 139.953125 30.753906 C 138.144531 31.132812 136.269531 30.960938 134.558594 30.269531 C 132.851562 29.578125 131.382812 28.390625 130.347656 26.859375 C 129.308594 25.332031 128.746094 23.527344 128.730469 21.675781 C 128.652344 19.277344 129.527344 16.945312 131.160156 15.191406 C 132.796875 13.4375 135.054688 12.40625 137.445312 12.320312 Z M 137.972656 26.445312 C 140.640625 26.445312 141.53125 23.789062 141.53125 21.554688 C 141.53125 19.324219 140.640625 16.644531 137.972656 16.644531 C 135.300781 16.644531 134.515625 19.324219 134.515625 21.554688 C 134.515625 23.789062 135.300781 26.445312 137.972656 26.445312 Z M 137.972656 26.445312 " fill-opacity="1" fill-rule="nonzero"/><path fill="#fa6624" d="M 29.824219 22.933594 L 25.113281 22.933594 L 23.089844 21.066406 L 23.089844 15.261719 L 24.871094 14.105469 L 29.664062 14.105469 C 29.898438 14.105469 30.125 14.011719 30.292969 13.84375 C 30.460938 13.675781 30.554688 13.449219 30.554688 13.214844 L 30.554688 8.484375 C 30.554688 8.367188 30.53125 8.253906 30.484375 8.144531 C 30.441406 8.039062 30.375 7.941406 30.292969 7.859375 C 30.207031 7.777344 30.109375 7.714844 30.003906 7.671875 C 29.894531 7.628906 29.78125 7.609375 29.664062 7.613281 L 24.851562 7.613281 C 24.734375 7.609375 24.617188 7.628906 24.511719 7.671875 C 24.402344 7.714844 24.304688 7.777344 24.222656 7.859375 C 24.140625 7.941406 24.074219 8.039062 24.027344 8.144531 C 23.984375 8.253906 23.960938 8.367188 23.960938 8.484375 L 23.960938 12.96875 L 21.9375 14.207031 L 16.234375 14.207031 L 13.117188 11.367188 L 13.117188 8.910156 C 13.121094 8.839844 13.109375 8.769531 13.085938 8.707031 C 13.058594 8.640625 13.019531 8.582031 12.972656 8.53125 C 12.921875 8.480469 12.863281 8.441406 12.796875 8.417969 C 12.734375 8.390625 12.664062 8.378906 12.59375 8.382812 L 9.601562 8.382812 C 9.527344 8.378906 9.457031 8.386719 9.390625 8.410156 C 9.320312 8.433594 9.257812 8.472656 9.207031 8.523438 C 9.15625 8.574219 9.117188 8.632812 9.089844 8.699219 C 9.0625 8.765625 9.050781 8.839844 9.054688 8.910156 L 9.054688 12.035156 C 9.050781 12.109375 9.0625 12.179688 9.089844 12.246094 C 9.117188 12.3125 9.15625 12.375 9.207031 12.425781 C 9.257812 12.472656 9.320312 12.511719 9.390625 12.535156 C 9.457031 12.558594 9.527344 12.570312 9.601562 12.5625 L 12.351562 12.5625 L 15.28125 15.242188 L 15.28125 20.945312 L 12.25 22.8125 L 9.601562 22.8125 C 9.527344 22.808594 9.457031 22.816406 9.390625 22.839844 C 9.320312 22.863281 9.257812 22.902344 9.207031 22.953125 C 9.15625 23.003906 9.117188 23.0625 9.089844 23.128906 C 9.0625 23.195312 9.050781 23.269531 9.054688 23.339844 L 9.054688 26.648438 C 9.050781 26.71875 9.0625 26.792969 9.089844 26.859375 C 9.117188 26.925781 9.15625 26.984375 9.207031 27.035156 C 9.257812 27.085938 9.320312 27.125 9.390625 27.148438 C 9.457031 27.171875 9.527344 27.183594 9.601562 27.175781 L 12.695312 27.175781 C 12.765625 27.183594 12.835938 27.171875 12.90625 27.148438 C 12.972656 27.125 13.035156 27.085938 13.085938 27.035156 C 13.136719 26.984375 13.179688 26.925781 13.203125 26.859375 C 13.230469 26.792969 13.242188 26.71875 13.242188 26.648438 L 13.242188 24.050781 L 16.335938 22.183594 L 22.121094 22.183594 L 24.140625 24.050781 L 24.140625 28.699219 C 24.140625 28.933594 24.234375 29.164062 24.402344 29.328125 C 24.570312 29.496094 24.796875 29.589844 25.03125 29.589844 L 29.824219 29.589844 C 30.0625 29.589844 30.289062 29.496094 30.453125 29.328125 C 30.621094 29.164062 30.714844 28.933594 30.714844 28.699219 L 30.714844 23.886719 C 30.722656 23.765625 30.703125 23.644531 30.660156 23.53125 C 30.617188 23.417969 30.554688 23.3125 30.46875 23.222656 C 30.386719 23.132812 30.289062 23.0625 30.175781 23.015625 C 30.066406 22.964844 29.945312 22.9375 29.824219 22.933594 Z M 29.824219 22.933594 " fill-opacity="1" fill-rule="nonzero"/><g clip-path="url(#7c6cdb71ee)"><path fill="#6a6e6f" d="M 5.3125 4.039062 L 11.074219 4.039062 L 11.074219 0.46875 L 3.875 0.46875 C 3.339844 0.46875 2.824219 0.683594 2.445312 1.0625 C 2.066406 1.445312 1.851562 1.960938 1.851562 2.5 L 1.851562 12.402344 L 5.414062 12.402344 Z M 5.3125 4.039062 " fill-opacity="1" fill-rule="nonzero"/></g><g clip-path="url(#d486731e56)"><path fill="#6a6e6f" d="M 5.3125 33.265625 L 5.3125 17.660156 L 1.753906 17.660156 L 1.753906 34.707031 C 1.753906 35.242188 1.964844 35.761719 2.34375 36.140625 C 2.722656 36.519531 3.238281 36.734375 3.773438 36.734375 L 15.261719 36.734375 L 15.261719 33.265625 Z M 5.3125 33.265625 " fill-opacity="1" fill-rule="nonzero"/></g><g clip-path="url(#73a706d648)"><path fill="#6a6e6f" d="M 34.355469 4.039062 L 34.355469 22.933594 L 37.917969 22.933594 L 37.917969 2.640625 C 37.917969 2.101562 37.703125 1.585938 37.324219 1.203125 C 36.945312 0.824219 36.429688 0.609375 35.894531 0.609375 L 16.152344 0.609375 L 16.152344 4.039062 Z M 34.355469 4.039062 " fill-opacity="1" fill-rule="nonzero"/></g><g clip-path="url(#1e3ab113c0)"><path fill="#6a6e6f" d="M 34.355469 33.265625 L 29.199219 33.265625 L 29.199219 36.816406 L 35.894531 36.816406 C 36.429688 36.816406 36.945312 36.601562 37.324219 36.222656 C 37.703125 35.839844 37.914062 35.324219 37.914062 34.785156 L 37.914062 28.171875 L 34.355469 28.171875 Z M 34.355469 33.265625 " fill-opacity="1" fill-rule="nonzero"/></g></svg>