<svg xmlns="http://www.w3.org/2000/svg" xmlns:xlink="http://www.w3.org/1999/xlink" width="200" zoomAndPan="magnify" viewBox="0 0 150 37.5" height="50" preserveAspectRatio="xMidYMid meet" version="1.0"><defs><clipPath id="41c01e4760"><path d="M 1 8 L 148 8 L 148 29.703125 L 1 29.703125 Z M 1 8 " clip-rule="nonzero"/></clipPath></defs><g clip-path="url(#41c01e4760)"><path fill="#000000" d="M 54.011719 18.742188 C 54.011719 15.792969 51.917969 13.273438 48.757812 13.273438 C 45.601562 13.273438 43.441406 15.828125 43.441406 18.742188 C 43.441406 21.625 45.535156 24.144531 48.695312 24.144531 C 50.015625 24.144531 51.046875 23.75 51.980469 23 L 53.367188 24.277344 L 54.140625 23.390625 L 52.753906 22.246094 C 53.5625 21.261719 54.011719 20.019531 54.011719 18.742188 Z M 51.917969 21.460938 L 50.015625 19.722656 L 49.242188 20.609375 L 51.144531 22.277344 C 50.5 22.738281 49.695312 23.0625 48.789062 23.0625 C 46.4375 23.0625 44.730469 21.132812 44.730469 18.707031 C 44.730469 16.320312 46.4375 14.355469 48.789062 14.355469 C 51.144531 14.355469 52.851562 16.285156 52.851562 18.707031 C 52.851562 19.789062 52.53125 20.738281 51.917969 21.460938 Z M 63.8125 19.527344 C 63.8125 21.785156 62.621094 23 60.652344 23 C 58.6875 23 57.496094 21.722656 57.496094 19.460938 L 57.496094 13.371094 L 56.300781 13.371094 L 56.300781 19.527344 C 56.300781 22.539062 58.074219 24.078125 60.652344 24.078125 C 63.230469 24.078125 65.003906 22.476562 65.003906 19.398438 L 65.003906 13.371094 L 63.8125 13.371094 Z M 133.921875 23.0625 C 131.632812 23.0625 129.925781 21.132812 129.925781 18.707031 C 129.925781 16.320312 131.632812 14.355469 133.921875 14.355469 C 135.308594 14.355469 136.273438 14.941406 137.210938 15.828125 L 137.984375 14.941406 C 136.917969 13.929688 135.824219 13.273438 133.921875 13.273438 C 130.890625 13.273438 128.667969 15.730469 128.667969 18.742188 C 128.667969 21.753906 130.890625 24.144531 133.855469 24.144531 C 135.757812 24.144531 136.949219 23.425781 138.015625 22.277344 L 137.242188 21.558594 C 136.304688 22.476562 135.371094 23.0625 133.921875 23.0625 Z M 141.300781 22.867188 L 141.300781 19.199219 L 146.945312 19.199219 L 146.945312 18.121094 L 141.300781 18.121094 L 141.300781 14.515625 L 147.621094 14.515625 L 147.621094 13.4375 L 140.109375 13.4375 L 140.109375 24.015625 L 147.683594 24.015625 L 147.683594 22.867188 Z M 113.066406 13.46875 L 109.199219 13.46875 L 109.199219 24.015625 L 110.390625 24.015625 L 110.390625 20.28125 L 112.90625 20.28125 C 115.128906 20.28125 116.964844 19.070312 116.964844 16.808594 C 116.964844 14.714844 115.449219 13.46875 113.066406 13.46875 Z M 115.773438 16.875 C 115.773438 18.285156 114.644531 19.199219 112.9375 19.199219 L 110.359375 19.199219 L 110.359375 14.582031 L 113 14.582031 C 114.644531 14.515625 115.773438 15.335938 115.773438 16.875 Z M 38.1875 18.121094 C 35.898438 17.660156 35.347656 17.039062 35.347656 16.054688 C 35.347656 15.105469 36.21875 14.386719 37.574219 14.386719 C 38.636719 14.386719 39.605469 14.714844 40.605469 15.53125 L 41.25 14.582031 C 40.183594 13.699219 39.152344 13.304688 37.636719 13.304688 C 35.671875 13.304688 34.222656 14.515625 34.222656 16.1875 C 34.222656 17.921875 35.347656 18.742188 37.703125 19.265625 C 39.863281 19.722656 40.410156 20.28125 40.410156 21.261719 C 40.410156 22.34375 39.476562 23.0625 38.121094 23.0625 C 36.671875 23.0625 35.605469 22.605469 34.574219 21.589844 L 33.867188 22.476562 C 35.125 23.621094 36.445312 24.144531 38.089844 24.144531 C 40.121094 24.144531 41.636719 22.933594 41.636719 21.132812 C 41.539062 19.460938 40.472656 18.675781 38.1875 18.121094 Z M 90.984375 19.199219 L 96.625 19.199219 L 96.625 18.121094 L 90.984375 18.121094 L 90.984375 14.515625 L 97.304688 14.515625 L 97.304688 13.4375 L 89.792969 13.4375 L 89.792969 24.015625 L 97.367188 24.015625 L 97.367188 22.867188 L 90.984375 22.867188 Z M 103.492188 18.121094 C 101.203125 17.660156 100.65625 17.039062 100.65625 16.054688 C 100.65625 15.105469 101.527344 14.386719 102.878906 14.386719 C 103.945312 14.386719 104.910156 14.714844 105.910156 15.53125 L 106.554688 14.582031 C 105.492188 13.699219 104.460938 13.304688 102.945312 13.304688 C 100.976562 13.304688 99.527344 14.515625 99.527344 16.1875 C 99.527344 17.921875 100.65625 18.742188 103.007812 19.265625 C 105.167969 19.722656 105.714844 20.28125 105.714844 21.261719 C 105.714844 22.34375 104.78125 23.0625 103.425781 23.0625 C 101.976562 23.0625 100.914062 22.605469 99.882812 21.589844 L 99.171875 22.476562 C 100.429688 23.621094 101.75 24.144531 103.394531 24.144531 C 105.425781 24.144531 106.941406 22.933594 106.941406 21.132812 C 106.84375 19.460938 105.78125 18.675781 103.492188 18.121094 Z M 71.257812 13.402344 L 66.519531 24.015625 L 67.710938 24.015625 L 68.96875 21.199219 L 74.609375 21.199219 L 75.804688 24.015625 L 77.058594 24.015625 L 72.320312 13.402344 Z M 69.421875 20.148438 L 71.773438 14.8125 L 74.125 20.148438 Z M 121.898438 13.402344 L 117.160156 24.015625 L 118.351562 24.015625 L 119.609375 21.199219 L 125.25 21.199219 L 126.441406 24.015625 L 127.699219 24.015625 L 122.960938 13.402344 Z M 120.058594 20.148438 L 122.414062 14.8125 L 124.765625 20.148438 Z M 87.3125 16.613281 C 87.3125 15.730469 86.988281 15.007812 86.535156 14.484375 C 85.890625 13.828125 84.894531 13.402344 83.570312 13.402344 L 79.089844 13.402344 L 79.089844 23.949219 L 80.285156 23.949219 L 80.285156 19.886719 L 83.25 19.886719 L 86.277344 23.949219 L 87.730469 23.949219 L 84.570312 19.660156 C 86.117188 19.332031 87.3125 18.347656 87.3125 16.613281 Z M 80.25 18.808594 L 80.25 14.515625 L 83.476562 14.515625 C 85.117188 14.515625 86.117188 15.304688 86.117188 16.582031 C 86.117188 17.921875 84.988281 18.707031 83.410156 18.707031 L 80.25 18.707031 Z M 5.628906 20.019531 C 6.082031 20.476562 6.886719 20.476562 7.402344 20.019531 L 15.234375 12.0625 C 16.234375 11.046875 17.75 11.046875 18.714844 12.0625 C 19.167969 12.519531 19.972656 12.519531 20.488281 12.0625 C 20.941406 11.601562 20.941406 10.785156 20.488281 10.261719 C 18.585938 8.328125 15.429688 8.328125 13.527344 10.261719 L 5.628906 18.183594 C 5.113281 18.742188 5.113281 19.460938 5.628906 20.019531 Z M 17.78125 14.648438 C 18.234375 14.191406 18.234375 13.371094 17.78125 12.847656 C 17.332031 12.390625 16.523438 12.390625 16.007812 12.847656 L 8.207031 20.871094 C 7.210938 21.886719 5.695312 21.886719 4.726562 20.871094 C 3.726562 19.855469 3.726562 18.316406 4.726562 17.332031 L 12.429688 9.507812 C 11.433594 8.492188 9.917969 8.492188 8.949219 9.507812 L 3.019531 15.53125 C 1.117188 17.464844 1.117188 20.671875 3.019531 22.605469 C 4.921875 24.539062 8.078125 24.539062 9.980469 22.605469 Z M 18.714844 15.53125 L 10.820312 23.554688 C 10.367188 24.015625 10.367188 24.832031 10.820312 25.355469 C 11.269531 25.816406 12.078125 25.816406 12.59375 25.355469 L 20.425781 17.398438 C 21.425781 16.382812 22.9375 16.382812 23.90625 17.398438 C 24.875 18.414062 24.90625 19.953125 23.90625 20.9375 L 16.203125 28.695312 C 17.203125 29.710938 18.714844 29.710938 19.683594 28.695312 L 25.679688 22.605469 C 27.582031 20.671875 27.582031 17.464844 25.679688 15.53125 C 23.710938 13.601562 20.617188 13.601562 18.714844 15.53125 Z M 23.066406 18.183594 C 22.617188 17.726562 21.8125 17.726562 21.296875 18.183594 L 13.460938 26.207031 C 12.464844 27.222656 10.949219 27.222656 9.980469 26.207031 C 9.53125 25.75 8.722656 25.75 8.207031 26.207031 C 7.757812 26.667969 7.757812 27.484375 8.207031 28.007812 C 10.109375 29.941406 13.269531 29.941406 15.171875 28.007812 L 23.003906 20.050781 C 23.519531 19.460938 23.519531 18.742188 23.066406 18.183594 Z M 23.066406 18.183594 " fill-opacity="1" fill-rule="nonzero"/></g></svg>