<svg xmlns="http://www.w3.org/2000/svg" xmlns:xlink="http://www.w3.org/1999/xlink" width="200" zoomAndPan="magnify" viewBox="0 0 150 37.5" height="50" preserveAspectRatio="xMidYMid meet" version="1.0"><defs><clipPath id="e79a01a78a"><path d="M 1.8125 2.933594 L 142 2.933594 L 142 26 L 1.8125 26 Z M 1.8125 2.933594 " clip-rule="nonzero"/></clipPath></defs><g clip-path="url(#e79a01a78a)"><path fill="#96151d" d="M 56.921875 25.570312 L 56.921875 25.761719 L 49.820312 25.761719 L 49.820312 23.003906 L 49.871094 22.996094 L 49.820312 22.996094 C 49.820312 22.996094 49.820312 15.757812 49.820312 15.757812 C 49.804688 15.335938 49.960938 13.449219 47.808594 13.46875 C 47.808594 13.472656 45.601562 13.503906 45.652344 16.160156 L 45.644531 23.328125 C 45.707031 25.53125 47.027344 25.578125 47.03125 25.578125 L 47.03125 25.761719 L 35.761719 25.761719 C 35.605469 25.777344 30.613281 25.941406 30.414062 21.304688 L 30.414062 18.796875 C 30.414062 18.796875 28.433594 19.238281 27.816406 19.710938 C 27.816406 19.710938 26.234375 20.710938 27.277344 22.429688 C 27.277344 22.429688 28.054688 23.785156 30.5625 23.285156 L 29.339844 25.765625 L 26.921875 25.765625 C 26.921875 25.765625 21.277344 25.882812 20.613281 21.746094 C 20.613281 21.71875 20.109375 18.5 23.960938 17.199219 C 23.960938 17.199219 25.28125 16.734375 27.789062 16.292969 C 27.816406 16.292969 29.929688 15.992188 30.128906 14.847656 C 30.179688 14.609375 30.15625 14.382812 30.058594 14.160156 C 30.09375 14.25 29.097656 11.640625 23.007812 14.277344 C 23.03125 14.304688 24.261719 10.464844 24.261719 10.464844 C 24.261719 10.464844 29.996094 8.785156 33.996094 11.234375 C 33.96875 11.261719 36.089844 12.382812 36.058594 15.902344 L 36.121094 20.773438 C 36.113281 20.839844 36.117188 23.265625 38.511719 23.402344 C 38.511719 23.425781 39.359375 23.417969 39.847656 23.414062 L 39.847656 12.789062 C 39.847656 12.730469 39.976562 10.515625 38.496094 10.417969 L 38.496094 10.214844 L 45.652344 9.9375 L 45.652344 11.742188 C 46.039062 11.359375 47.621094 9.957031 49.957031 9.914062 C 49.957031 9.914062 55.527344 9.71875 55.515625 15.160156 C 55.519531 15.160156 55.527344 22.992188 55.527344 22.992188 C 55.480469 25.535156 56.925781 25.570312 56.925781 25.570312 Z M 1.832031 3.257812 L 1.832031 3.023438 L 9.597656 3.023438 L 15.171875 19.253906 L 19.292969 6.230469 C 19.292969 6.230469 20.136719 4.042969 17.882812 3.171875 L 17.882812 2.988281 L 24.101562 2.988281 L 16.242188 25.9375 L 12.96875 24.679688 C 12.96875 24.679688 10.320312 23.898438 8.910156 19.933594 L 3.796875 5.851562 C 3.796875 5.851562 3.152344 3.578125 1.832031 3.257812 Z M 140.246094 22.996094 C 140.210938 25.71875 141.660156 25.574219 141.664062 25.574219 L 141.664062 25.765625 L 134.355469 25.761719 L 134.355469 15.972656 L 134.351562 15.769531 C 134.351562 15.863281 134.351562 13.269531 132.074219 13.242188 C 132.046875 13.269531 129.398438 12.988281 129.398438 17.921875 C 129.371094 17.949219 129.371094 23.691406 133.847656 22.953125 C 133.847656 22.976562 132.277344 25.753906 132.277344 25.753906 C 132.277344 25.753906 128.648438 27 125.640625 23.796875 C 125.640625 23.796875 123.351562 21.8125 123.351562 17.921875 C 123.378906 17.949219 123.277344 14.261719 125.640625 11.921875 C 125.617188 11.996094 129.292969 7.859375 134.351562 11.050781 L 134.351562 5.875 C 134.351562 5.820312 134.480469 3.605469 133 3.507812 L 133 3.304688 L 140.242188 3.027344 Z M 118.503906 11.988281 C 120.089844 9.011719 123.132812 9.933594 123.132812 9.933594 L 123.132812 13.828125 C 118.304688 13.03125 118.507812 16.65625 118.503906 16.632812 L 118.5 16.632812 L 118.496094 22.992188 C 118.464844 25.6875 119.851562 25.578125 119.921875 25.578125 L 119.921875 25.761719 L 108.515625 25.761719 C 108.367188 25.777344 103.371094 25.941406 103.175781 21.304688 L 103.175781 18.796875 C 103.175781 18.796875 101.191406 19.238281 100.574219 19.710938 C 100.574219 19.710938 98.996094 20.710938 100.039062 22.429688 C 100.039062 22.429688 100.8125 23.785156 103.324219 23.285156 L 102.097656 25.769531 L 99.675781 25.769531 C 99.675781 25.769531 94.035156 25.882812 93.375 21.746094 C 93.375 21.714844 92.867188 18.5 96.71875 17.199219 C 96.71875 17.199219 98.039062 16.734375 100.542969 16.292969 C 100.574219 16.292969 102.6875 15.992188 102.882812 14.851562 C 102.9375 14.613281 102.914062 14.382812 102.816406 14.160156 C 102.84375 14.25 101.855469 11.640625 95.761719 14.277344 C 95.796875 14.304688 97.019531 10.464844 97.019531 10.464844 C 97.019531 10.464844 102.757812 8.785156 106.757812 11.234375 C 106.730469 11.265625 108.84375 12.386719 108.820312 15.898438 L 108.882812 20.773438 C 108.871094 20.84375 108.871094 23.265625 111.269531 23.398438 C 111.269531 23.421875 112.226562 23.417969 112.695312 23.414062 L 112.695312 12.789062 C 112.695312 12.730469 112.824219 10.511719 111.34375 10.414062 L 111.34375 10.21875 L 118.503906 9.9375 Z M 118.503906 11.988281 " fill-opacity="1" fill-rule="evenodd"/></g><path fill="#96151d" d="M 65.1875 18.539062 C 67.378906 18.539062 67.125 15.503906 67.125 15.460938 C 67.078125 12.855469 65.195312 12.929688 65.195312 12.929688 C 63.117188 12.929688 63.203125 15.53125 63.175781 15.503906 C 62.949219 18.390625 65.035156 18.574219 65.1875 18.539062 Z M 81.539062 9.914062 L 81.539062 20.058594 C 81.539062 20.058594 81.488281 22.257812 83.496094 22.238281 C 83.488281 22.199219 85.621094 22.558594 85.703125 19.53125 C 85.703125 19.535156 85.703125 19.539062 85.707031 19.539062 L 85.710938 17.695312 L 85.710938 12.789062 C 85.710938 12.730469 85.839844 10.515625 84.359375 10.417969 L 84.359375 10.214844 L 91.515625 9.9375 L 91.515625 22.992188 C 91.511719 23.050781 91.382812 25.503906 92.933594 25.578125 L 92.933594 25.761719 L 85.703125 25.761719 L 85.703125 23.90625 C 85.410156 24.207031 83.796875 25.734375 81.363281 25.78125 C 81.363281 25.78125 75.691406 25.980469 75.703125 20.53125 C 75.683594 20.488281 75.695312 14.730469 75.699219 12.761719 L 71.335938 12.761719 C 71.503906 12.898438 71.71875 13.183594 71.71875 13.183594 C 74.167969 16.3125 71.789062 18.914062 71.765625 18.9375 C 70.195312 21.128906 65.125 21.746094 65.125 21.746094 L 64.808594 21.78125 C 63.09375 21.839844 63.636719 22.710938 63.644531 22.714844 C 63.890625 23.292969 65.128906 23.203125 65.128906 23.203125 L 68.03125 23.203125 C 73.910156 23.183594 74.539062 27.023438 74.5625 27.023438 C 75.527344 32.410156 70.089844 34.015625 64.660156 33.875 C 59.273438 33.910156 57.277344 31.570312 57.300781 31.589844 C 55.929688 30.007812 56.652344 27.804688 59.074219 27.132812 C 60.867188 26.640625 62.984375 27.132812 62.984375 27.132812 C 61.375 27.359375 61.660156 28.992188 61.664062 29.003906 C 62.203125 30.933594 64.953125 30.953125 65.121094 30.957031 C 68.636719 30.773438 68.734375 29.066406 68.734375 28.234375 C 68.734375 27.132812 67.816406 26.46875 67.816406 26.46875 C 66.542969 25.539062 64.132812 25.832031 62.457031 25.757812 C 60.105469 25.625 59.492188 23.421875 59.382812 22.746094 C 59.273438 22.066406 59.398438 21.792969 59.792969 21.542969 C 60.5 21.125 62.113281 20.941406 61.929688 20.945312 L 61.964844 20.9375 C 61.933594 20.933594 61.917969 20.933594 61.914062 20.933594 C 59.890625 20.289062 58.691406 18.59375 58.667969 18.59375 C 56.097656 14.925781 59.09375 12.035156 59.09375 12.035156 C 60.816406 10.378906 63 10.007812 64.953125 9.914062 Z M 142.589844 5.902344 C 142.589844 7.261719 143.707031 8.367188 145.082031 8.367188 C 146.457031 8.367188 147.574219 7.261719 147.574219 5.902344 C 147.574219 4.542969 146.457031 3.4375 145.082031 3.4375 C 143.707031 3.4375 142.589844 4.542969 142.589844 5.902344 Z M 142.191406 5.902344 C 142.191406 4.328125 143.484375 3.039062 145.082031 3.039062 C 146.675781 3.039062 147.976562 4.328125 147.976562 5.902344 C 147.976562 7.480469 146.675781 8.761719 145.082031 8.761719 C 144.703125 8.765625 144.332031 8.691406 143.980469 8.546875 C 143.628906 8.402344 143.316406 8.199219 143.042969 7.929688 C 142.773438 7.660156 142.5625 7.351562 142.414062 7 C 142.265625 6.648438 142.191406 6.28125 142.191406 5.902344 Z M 142.191406 5.902344 " fill-opacity="1" fill-rule="evenodd"/><path fill="#96151d" d="M 144.457031 6.082031 L 144.457031 7.605469 L 143.980469 7.605469 L 143.980469 4.234375 L 145.199219 4.234375 C 145.773438 4.234375 146.359375 4.414062 146.359375 5.078125 C 146.367188 5.273438 146.308594 5.449219 146.1875 5.601562 C 146.070312 5.753906 145.914062 5.851562 145.722656 5.890625 L 145.722656 5.902344 C 146.128906 5.996094 146.183594 6.214844 146.238281 6.589844 C 146.289062 6.925781 146.328125 7.285156 146.453125 7.605469 L 145.945312 7.605469 C 145.902344 7.40625 145.847656 7.183594 145.824219 6.984375 C 145.785156 6.679688 145.785156 6.40625 145.628906 6.234375 C 145.496094 6.082031 145.304688 6.097656 145.117188 6.082031 Z M 144.445312 5.683594 L 145.226562 5.683594 C 145.75 5.65625 145.867188 5.421875 145.867188 5.160156 C 145.867188 4.890625 145.75 4.65625 145.226562 4.636719 L 144.445312 4.636719 Z M 144.445312 5.683594 " fill-opacity="1" fill-rule="evenodd"/></svg>