<svg xmlns="http://www.w3.org/2000/svg" xmlns:xlink="http://www.w3.org/1999/xlink" width="200" zoomAndPan="magnify" viewBox="0 0 150 37.5" height="50" preserveAspectRatio="xMidYMid meet" version="1.0"><defs><clipPath id="9f2cc73232"><path d="M 57 7 L 90 7 L 90 29.875 L 57 29.875 Z M 57 7 " clip-rule="nonzero"/></clipPath><clipPath id="875d0400ca"><path d="M 111 7 L 124 7 L 124 29.875 L 111 29.875 Z M 111 7 " clip-rule="nonzero"/></clipPath><clipPath id="8b7b52dad2"><path d="M 123 7 L 144 7 L 144 29.875 L 123 29.875 Z M 123 7 " clip-rule="nonzero"/></clipPath><clipPath id="9a81160cf0"><path d="M 89 7 L 108 7 L 108 29.875 L 89 29.875 Z M 89 7 " clip-rule="nonzero"/></clipPath><clipPath id="9def3716b1"><path d="M 1 7 L 57 7 L 57 29.875 L 1 29.875 Z M 1 7 " clip-rule="nonzero"/></clipPath></defs><g clip-path="url(#9f2cc73232)"><path fill="#717074" d="M 64.585938 27.996094 L 58.171875 10.164062 C 58.066406 9.953125 57.960938 9.640625 57.960938 9.328125 C 57.960938 8.597656 58.589844 7.765625 59.644531 7.765625 C 60.378906 7.765625 61.011719 8.285156 61.324219 9.121094 L 66.585938 24.453125 L 71.949219 9.015625 C 72.160156 8.285156 72.6875 7.660156 73.527344 7.660156 L 73.738281 7.660156 C 74.578125 7.660156 75.210938 8.183594 75.421875 9.015625 L 80.679688 24.453125 L 86.042969 9.015625 C 86.253906 8.390625 86.675781 7.765625 87.621094 7.765625 C 88.570312 7.765625 89.199219 8.390625 89.199219 9.226562 C 89.199219 9.539062 89.09375 9.851562 88.988281 10.058594 L 82.46875 27.894531 C 82.152344 28.832031 81.519531 29.351562 80.679688 29.351562 L 80.574219 29.351562 C 79.839844 29.351562 79.101562 28.9375 78.785156 27.894531 L 73.527344 12.769531 L 68.269531 27.894531 C 67.953125 28.832031 67.425781 29.351562 66.480469 29.351562 L 66.375 29.351562 C 65.535156 29.457031 64.902344 28.832031 64.585938 27.996094 " fill-opacity="1" fill-rule="nonzero"/></g><g clip-path="url(#875d0400ca)"><path fill="#717074" d="M 111.5 9.433594 C 111.5 8.597656 112.128906 7.765625 113.078125 7.765625 C 113.917969 7.765625 114.761719 8.390625 114.761719 9.433594 L 114.761719 13.082031 C 116.335938 9.539062 119.808594 7.972656 122.019531 7.972656 C 122.964844 7.972656 123.59375 8.597656 123.59375 9.640625 C 123.59375 10.476562 123.070312 11.101562 122.121094 11.3125 C 118.019531 11.726562 114.65625 14.855469 114.65625 20.90625 L 114.65625 27.996094 C 114.65625 28.832031 114.023438 29.664062 113.078125 29.664062 C 112.234375 29.664062 111.394531 29.039062 111.394531 27.996094 L 111.394531 9.433594 " fill-opacity="1" fill-rule="nonzero"/></g><g clip-path="url(#8b7b52dad2)"><path fill="#717074" d="M 133.796875 29.5625 C 128.117188 29.5625 123.488281 25.179688 123.488281 18.714844 L 123.488281 18.609375 C 123.488281 12.5625 127.699219 7.765625 133.484375 7.765625 C 139.6875 7.765625 143.160156 12.769531 143.160156 18.402344 C 143.160156 19.238281 142.527344 19.863281 141.6875 19.863281 L 126.539062 19.863281 C 126.960938 24.347656 130.222656 26.953125 133.902344 26.953125 C 136.429688 26.953125 138.425781 26.015625 139.898438 24.554688 C 140.109375 24.347656 140.425781 24.242188 140.742188 24.242188 C 141.476562 24.242188 142.109375 24.867188 142.109375 25.597656 C 142.109375 25.910156 142.003906 26.328125 141.6875 26.535156 C 139.6875 28.308594 137.375 29.5625 133.796875 29.5625 M 140.003906 17.464844 C 139.6875 13.605469 137.480469 10.371094 133.378906 10.371094 C 129.695312 10.371094 126.960938 13.394531 126.644531 17.464844 Z M 140.003906 17.464844 " fill-opacity="1" fill-rule="nonzero"/></g><g clip-path="url(#9a81160cf0)"><path fill="#717074" d="M 89.09375 23.09375 C 89.09375 18.609375 92.777344 16.210938 98.140625 16.210938 C 100.875 16.210938 102.769531 16.523438 104.664062 17.046875 L 104.664062 16.316406 C 104.664062 12.457031 102.347656 10.683594 98.351562 10.683594 C 96.246094 10.683594 94.984375 10.894531 93.40625 11.625 C 93.195312 11.726562 92.988281 11.726562 92.882812 11.726562 C 92.144531 11.726562 91.410156 11.101562 91.410156 10.371094 C 91.410156 9.640625 91.722656 9.328125 92.25 9.015625 C 94.355469 8.183594 95.933594 7.765625 98.667969 7.765625 C 101.613281 7.765625 103.925781 8.496094 105.503906 10.058594 C 106.976562 11.519531 107.710938 13.605469 107.710938 16.210938 L 107.710938 27.789062 C 107.710938 28.621094 107.082031 29.351562 106.132812 29.351562 C 105.292969 29.351562 104.558594 28.726562 104.558594 27.894531 L 104.558594 25.808594 C 103.085938 27.789062 100.558594 29.457031 96.878906 29.457031 C 93.089844 29.5625 89.09375 27.371094 89.09375 23.09375 M 104.664062 21.425781 L 104.664062 19.339844 C 103.085938 18.921875 100.980469 18.507812 98.351562 18.507812 C 94.355469 18.507812 92.144531 20.28125 92.144531 22.886719 L 92.144531 22.992188 C 92.144531 25.597656 94.5625 27.164062 97.40625 27.164062 C 101.507812 27.164062 104.664062 24.765625 104.664062 21.425781 " fill-opacity="1" fill-rule="nonzero"/></g><g clip-path="url(#9def3716b1)"><path fill="#717074" d="M 7.15625 9.121094 C 6.523438 7.554688 4.738281 6.929688 3.160156 7.554688 C 1.582031 8.183594 0.949219 10.058594 1.792969 11.519531 L 8.523438 26.015625 C 9.574219 28.308594 10.730469 29.5625 12.835938 29.5625 C 15.042969 29.5625 15.992188 28.207031 17.148438 26.015625 C 17.148438 26.015625 23.039062 13.292969 23.144531 13.1875 C 23.25 13.082031 23.355469 12.667969 23.984375 12.667969 C 24.511719 12.667969 24.828125 13.082031 24.828125 13.605469 L 24.828125 25.910156 C 24.828125 27.789062 25.878906 29.457031 27.878906 29.457031 C 29.980469 29.457031 31.03125 27.894531 31.03125 25.910156 L 31.03125 15.898438 C 31.03125 13.917969 32.503906 12.667969 34.292969 12.667969 C 36.1875 12.667969 37.449219 14.023438 37.449219 15.898438 L 37.449219 26.015625 C 37.449219 27.894531 38.5 29.5625 40.5 29.5625 C 42.601562 29.5625 43.65625 27.996094 43.65625 26.015625 L 43.65625 15.898438 C 43.65625 13.917969 45.128906 12.667969 46.914062 12.667969 C 48.808594 12.667969 50.070312 14.023438 50.070312 15.898438 L 50.070312 26.015625 C 50.070312 27.894531 51.121094 29.5625 53.121094 29.5625 C 55.226562 29.5625 56.277344 27.996094 56.277344 26.015625 L 56.277344 14.542969 C 56.277344 10.269531 52.910156 7.347656 48.703125 7.347656 C 44.496094 7.347656 41.972656 10.164062 41.972656 10.164062 C 40.5 8.390625 38.710938 7.347656 35.449219 7.347656 C 32.085938 7.347656 29.035156 10.164062 29.035156 10.164062 C 27.667969 8.390625 25.246094 7.347656 23.460938 7.347656 C 20.515625 7.347656 18.09375 8.703125 16.621094 11.9375 L 12.308594 21.949219 L 7.15625 9.121094 " fill-opacity="1" fill-rule="nonzero"/></g><path fill="#717074" d="M 143.265625 10.371094 C 143.265625 8.910156 144.527344 7.765625 145.894531 7.765625 C 147.367188 7.765625 148.523438 9.015625 148.523438 10.371094 C 148.523438 11.832031 147.261719 12.980469 145.894531 12.980469 C 144.421875 12.980469 143.265625 11.832031 143.265625 10.371094 M 148 10.371094 C 148 9.121094 147.15625 8.285156 145.894531 8.285156 C 144.632812 8.285156 143.789062 9.226562 143.789062 10.371094 C 143.789062 11.625 144.632812 12.457031 145.894531 12.457031 C 147.15625 12.457031 148 11.519531 148 10.371094 " fill-opacity="1" fill-rule="nonzero"/><path fill="#717074" d="M 146.945312 10.476562 C 146.839844 10.582031 146.632812 10.683594 146.421875 10.789062 L 147.050781 11.726562 L 146.527344 11.726562 L 145.894531 10.789062 L 145.472656 10.789062 L 145.472656 11.726562 L 144.949219 11.726562 L 144.949219 9.015625 L 146.105469 9.015625 C 146.316406 9.015625 146.421875 9.015625 146.632812 9.121094 C 146.734375 9.226562 146.945312 9.328125 146.945312 9.433594 C 147.050781 9.539062 147.050781 9.746094 147.050781 9.851562 C 147.15625 10.164062 147.050781 10.371094 146.945312 10.476562 Z M 145.472656 10.371094 L 146.105469 10.371094 C 146.316406 10.371094 146.421875 10.371094 146.527344 10.269531 C 146.632812 10.164062 146.632812 10.058594 146.632812 9.953125 C 146.632812 9.851562 146.527344 9.746094 146.527344 9.640625 C 146.421875 9.539062 146.316406 9.539062 146.105469 9.539062 L 145.472656 9.539062 Z M 145.472656 10.371094 " fill-opacity="1" fill-rule="nonzero"/></svg>