<svg xmlns="http://www.w3.org/2000/svg" xmlns:xlink="http://www.w3.org/1999/xlink" width="200" zoomAndPan="magnify" viewBox="0 0 150 37.5" height="50" preserveAspectRatio="xMidYMid meet" version="1.0"><path fill="#000000" d="M 75.117188 0.511719 C 65.15625 0.511719 57.082031 8.507812 57.082031 18.371094 C 57.082031 28.230469 65.15625 36.226562 75.117188 36.226562 C 85.074219 36.226562 93.152344 28.230469 93.152344 18.371094 C 93.152344 8.507812 85.074219 0.511719 75.117188 0.511719 Z M 75.117188 34.785156 C 65.957031 34.785156 58.523438 27.421875 58.523438 18.355469 C 58.523438 9.285156 65.957031 1.925781 75.117188 1.925781 C 84.277344 1.925781 91.710938 9.285156 91.710938 18.355469 C 91.710938 27.4375 84.277344 34.785156 75.117188 34.785156 Z M 75.117188 34.785156 " fill-opacity="1" fill-rule="nonzero"/><path fill="#000000" d="M 75.648438 20.324219 L 78.898438 20.324219 L 78.898438 26.753906 L 80.339844 26.753906 L 80.339844 20.324219 L 83.585938 20.324219 L 83.585938 18.898438 L 75.648438 18.898438 Z M 75.648438 20.324219 " fill-opacity="1" fill-rule="nonzero"/><path fill="#000000" d="M 73.738281 18.726562 L 70.617188 21.816406 L 67.480469 18.726562 L 66.460938 19.734375 L 69.597656 22.824219 L 66.460938 25.917969 L 67.480469 26.925781 L 70.617188 23.835938 L 73.738281 26.925781 L 74.757812 25.917969 L 71.636719 22.824219 L 74.757812 19.734375 Z M 73.738281 18.726562 " fill-opacity="1" fill-rule="nonzero"/><path fill="#000000" d="M 79.539062 17.824219 C 81.78125 17.824219 83.601562 16.023438 83.601562 13.804688 L 82.144531 13.804688 C 82.144531 15.234375 80.96875 16.398438 79.523438 16.398438 C 79.117188 16.398438 78.722656 16.304688 78.378906 16.132812 L 81.875 12.671875 L 82.925781 11.628906 C 82.207031 10.527344 80.953125 9.796875 79.523438 9.796875 C 77.28125 9.796875 75.460938 11.597656 75.460938 13.820312 C 75.476562 16.023438 77.296875 17.824219 79.539062 17.824219 Z M 79.539062 11.226562 C 80.042969 11.226562 80.511719 11.367188 80.917969 11.613281 L 77.3125 15.1875 C 77.0625 14.78125 76.921875 14.316406 76.921875 13.820312 C 76.921875 12.375 78.097656 11.226562 79.539062 11.226562 Z M 79.539062 11.226562 " fill-opacity="1" fill-rule="nonzero"/><path fill="#000000" d="M 70.617188 13.382812 L 67.574219 9.796875 L 66.460938 10.714844 L 69.894531 14.75 L 69.894531 17.824219 L 71.335938 17.824219 L 71.335938 14.75 L 74.757812 10.714844 L 73.660156 9.796875 Z M 70.617188 13.382812 " fill-opacity="1" fill-rule="nonzero"/></svg>