<svg xmlns="http://www.w3.org/2000/svg" xmlns:xlink="http://www.w3.org/1999/xlink" width="500" zoomAndPan="magnify" viewBox="0 0 375 374.999991" height="500" preserveAspectRatio="xMidYMid meet" version="1.0"><path fill="#4c175a" d="M 91.957031 0 L 283.042969 0 C 284.546875 0 286.050781 0.0351562 287.554688 0.109375 C 289.058594 0.183594 290.558594 0.296875 292.054688 0.441406 C 293.554688 0.589844 295.046875 0.773438 296.535156 0.996094 C 298.023438 1.214844 299.507812 1.472656 300.984375 1.765625 C 302.460938 2.058594 303.925781 2.390625 305.386719 2.753906 C 306.847656 3.121094 308.296875 3.523438 309.738281 3.960938 C 311.175781 4.398438 312.605469 4.867188 314.023438 5.375 C 315.441406 5.882812 316.84375 6.425781 318.234375 7 C 319.625 7.574219 321 8.183594 322.359375 8.828125 C 323.71875 9.472656 325.0625 10.148438 326.390625 10.859375 C 327.71875 11.566406 329.027344 12.308594 330.320312 13.082031 C 331.609375 13.855469 332.878906 14.660156 334.132812 15.496094 C 335.382812 16.332031 336.613281 17.199219 337.820312 18.097656 C 339.03125 18.992188 340.214844 19.917969 341.378906 20.875 C 342.542969 21.828125 343.683594 22.8125 344.796875 23.820312 C 345.914062 24.832031 347.003906 25.871094 348.066406 26.933594 C 349.128906 27.996094 350.167969 29.085938 351.179688 30.203125 C 352.1875 31.316406 353.171875 32.457031 354.125 33.621094 C 355.082031 34.785156 356.007812 35.96875 356.902344 37.179688 C 357.800781 38.386719 358.667969 39.617188 359.503906 40.867188 C 360.339844 42.121094 361.144531 43.390625 361.917969 44.679688 C 362.691406 45.972656 363.433594 47.28125 364.140625 48.609375 C 364.851562 49.9375 365.527344 51.28125 366.171875 52.640625 C 366.816406 54 367.425781 55.375 368 56.765625 C 368.574219 58.15625 369.117188 59.558594 369.625 60.976562 C 370.132812 62.394531 370.601562 63.824219 371.039062 65.261719 C 371.476562 66.703125 371.878906 68.152344 372.242188 69.613281 C 372.609375 71.074219 372.9375 72.539062 373.234375 74.015625 C 373.527344 75.492188 373.785156 76.976562 374.003906 78.464844 C 374.226562 79.953125 374.410156 81.445312 374.558594 82.945312 C 374.703125 84.441406 374.816406 85.941406 374.890625 87.445312 C 374.964844 88.949219 375 90.453125 375 91.957031 L 375 283.042969 C 375 284.546875 374.964844 286.050781 374.890625 287.554688 C 374.816406 289.058594 374.703125 290.558594 374.558594 292.054688 C 374.410156 293.554688 374.226562 295.046875 374.003906 296.535156 C 373.785156 298.023438 373.527344 299.507812 373.234375 300.984375 C 372.9375 302.460938 372.609375 303.925781 372.242188 305.386719 C 371.878906 306.847656 371.476562 308.296875 371.039062 309.738281 C 370.601562 311.175781 370.132812 312.605469 369.625 314.023438 C 369.117188 315.441406 368.574219 316.84375 368 318.234375 C 367.425781 319.625 366.816406 321 366.171875 322.359375 C 365.527344 323.71875 364.851562 325.0625 364.140625 326.390625 C 363.433594 327.71875 362.691406 329.027344 361.917969 330.320312 C 361.144531 331.609375 360.339844 332.878906 359.503906 334.132812 C 358.667969 335.382812 357.800781 336.613281 356.902344 337.820312 C 356.007812 339.03125 355.082031 340.214844 354.125 341.378906 C 353.171875 342.542969 352.1875 343.683594 351.179688 344.796875 C 350.167969 345.914062 349.128906 347.003906 348.066406 348.066406 C 347.003906 349.128906 345.914062 350.167969 344.796875 351.179688 C 343.683594 352.1875 342.542969 353.171875 341.378906 354.125 C 340.214844 355.082031 339.03125 356.007812 337.820312 356.902344 C 336.613281 357.800781 335.382812 358.667969 334.132812 359.503906 C 332.878906 360.339844 331.609375 361.144531 330.320312 361.917969 C 329.027344 362.691406 327.71875 363.433594 326.390625 364.140625 C 325.0625 364.851562 323.71875 365.527344 322.359375 366.171875 C 321 366.816406 319.625 367.425781 318.234375 368 C 316.84375 368.574219 315.441406 369.117188 314.023438 369.625 C 312.605469 370.132812 311.175781 370.601562 309.738281 371.039062 C 308.296875 371.476562 306.847656 371.878906 305.386719 372.242188 C 303.925781 372.609375 302.460938 372.9375 300.984375 373.234375 C 299.507812 373.527344 298.023438 373.785156 296.535156 374.003906 C 295.046875 374.226562 293.554688 374.410156 292.054688 374.558594 C 290.558594 374.703125 289.058594 374.816406 287.554688 374.890625 C 286.050781 374.964844 284.546875 375 283.042969 375 L 91.957031 375 C 90.453125 375 88.949219 374.964844 87.445312 374.890625 C 85.941406 374.816406 84.441406 374.703125 82.945312 374.558594 C 81.445312 374.410156 79.953125 374.226562 78.464844 374.003906 C 76.976562 373.785156 75.492188 373.527344 74.015625 373.234375 C 72.539062 372.9375 71.074219 372.609375 69.613281 372.242188 C 68.152344 371.878906 66.703125 371.476562 65.261719 371.039062 C 63.824219 370.601562 62.394531 370.132812 60.976562 369.625 C 59.558594 369.117188 58.15625 368.574219 56.765625 368 C 55.375 367.425781 54 366.816406 52.640625 366.171875 C 51.28125 365.527344 49.9375 364.851562 48.609375 364.140625 C 47.28125 363.433594 45.972656 362.691406 44.679688 361.917969 C 43.390625 361.144531 42.121094 360.339844 40.867188 359.503906 C 39.617188 358.667969 38.386719 357.800781 37.179688 356.902344 C 35.96875 356.007812 34.785156 355.082031 33.621094 354.125 C 32.457031 353.171875 31.316406 352.1875 30.203125 351.179688 C 29.085938 350.167969 27.996094 349.128906 26.933594 348.066406 C 25.871094 347.003906 24.832031 345.914062 23.820312 344.796875 C 22.8125 343.683594 21.828125 342.542969 20.875 341.378906 C 19.917969 340.214844 18.992188 339.03125 18.097656 337.820312 C 17.199219 336.613281 16.332031 335.382812 15.496094 334.132812 C 14.660156 332.878906 13.855469 331.609375 13.082031 330.320312 C 12.308594 329.027344 11.566406 327.71875 10.859375 326.390625 C 10.148438 325.0625 9.472656 323.71875 8.828125 322.359375 C 8.183594 321 7.574219 319.625 7 318.234375 C 6.425781 316.84375 5.882812 315.441406 5.375 314.023438 C 4.867188 312.605469 4.398438 311.175781 3.960938 309.738281 C 3.523438 308.296875 3.121094 306.847656 2.753906 305.386719 C 2.390625 303.925781 2.058594 302.460938 1.765625 300.984375 C 1.472656 299.507812 1.214844 298.023438 0.996094 296.535156 C 0.773438 295.046875 0.589844 293.554688 0.441406 292.054688 C 0.296875 290.558594 0.183594 289.058594 0.109375 287.554688 C 0.0351562 286.050781 0 284.546875 0 283.042969 L 0 91.957031 C 0 90.453125 0.0351562 88.949219 0.109375 87.445312 C 0.183594 85.941406 0.296875 84.441406 0.441406 82.945312 C 0.589844 81.445312 0.773438 79.953125 0.996094 78.464844 C 1.214844 76.976562 1.472656 75.492188 1.765625 74.015625 C 2.058594 72.539062 2.390625 71.074219 2.753906 69.613281 C 3.121094 68.152344 3.523438 66.703125 3.960938 65.261719 C 4.398438 63.824219 4.867188 62.394531 5.375 60.976562 C 5.882812 59.558594 6.425781 58.15625 7 56.765625 C 7.574219 55.375 8.183594 54 8.828125 52.640625 C 9.472656 51.28125 10.148438 49.9375 10.859375 48.609375 C 11.566406 47.28125 12.308594 45.972656 13.082031 44.679688 C 13.855469 43.390625 14.660156 42.121094 15.496094 40.867188 C 16.332031 39.617188 17.199219 38.386719 18.097656 37.179688 C 18.992188 35.96875 19.917969 34.785156 20.875 33.621094 C 21.828125 32.457031 22.8125 31.316406 23.820312 30.203125 C 24.832031 29.085938 25.871094 27.996094 26.933594 26.933594 C 27.996094 25.871094 29.085938 24.832031 30.203125 23.820312 C 31.316406 22.8125 32.457031 21.828125 33.621094 20.875 C 34.785156 19.917969 35.96875 18.992188 37.179688 18.097656 C 38.386719 17.199219 39.617188 16.332031 40.867188 15.496094 C 42.121094 14.660156 43.390625 13.855469 44.679688 13.082031 C 45.972656 12.308594 47.28125 11.566406 48.609375 10.859375 C 49.9375 10.148438 51.28125 9.472656 52.640625 8.828125 C 54 8.183594 55.375 7.574219 56.765625 7 C 58.15625 6.425781 59.558594 5.882812 60.976562 5.375 C 62.394531 4.867188 63.824219 4.398438 65.261719 3.960938 C 66.703125 3.523438 68.152344 3.121094 69.613281 2.753906 C 71.074219 2.390625 72.539062 2.058594 74.015625 1.765625 C 75.492188 1.472656 76.976562 1.214844 78.464844 0.996094 C 79.953125 0.773438 81.445312 0.589844 82.945312 0.441406 C 84.441406 0.296875 85.941406 0.183594 87.445312 0.109375 C 88.949219 0.0351562 90.453125 0 91.957031 0 Z M 91.957031 0 " fill-opacity="1" fill-rule="nonzero"/><path fill="#ecf2f4" d="M 168.367188 184.953125 C 149.179688 153.398438 114.859375 147.242188 87.34375 130.660156 C 83.144531 128.121094 81.300781 129.460938 81.300781 134.117188 C 81.300781 168 81.300781 201.855469 81.691406 235.738281 C 81.707031 237.210938 81.921875 238.652344 82.332031 240.066406 C 82.738281 241.480469 83.332031 242.816406 84.105469 244.066406 C 84.882812 245.320312 85.808594 246.445312 86.890625 247.441406 C 87.972656 248.441406 89.171875 249.273438 90.480469 249.945312 C 117.925781 264.015625 145.488281 277.875 175.035156 292.824219 C 175.035156 266.230469 175.035156 241.6875 175.035156 217.125 C 175.289062 178.816406 192.492188 150.863281 226.445312 133.355469 C 253.589844 119.355469 281.011719 105.910156 308.183594 91.839844 C 315.242188 88.199219 318.886719 86.699219 318.769531 97.515625 C 318.332031 142.535156 318.769531 187.464844 318.515625 232.601562 C 318.402344 251.539062 309.773438 265.582031 292.40625 274.117188 C 266.253906 287.078125 240.257812 300.386719 212.28125 314.503906 C 212.28125 306.707031 212.675781 300.664062 212.28125 294.714844 C 211.75 288.371094 214.402344 285.164062 219.984375 282.445312 C 240.027344 272.710938 259.65625 262.148438 279.746094 252.460938 C 289.59375 247.730469 293.792969 240.464844 293.746094 229.925781 C 293.746094 198.953125 293.492188 167.953125 293.746094 136.976562 C 293.746094 128.328125 291.324219 128.328125 284.703125 131.789062 C 267.890625 140.621094 250.476562 148.324219 233.960938 157.644531 C 212.191406 170.050781 200.335938 189.125 200.035156 214.496094 C 199.644531 246.785156 200.035156 278.9375 200.035156 311.160156 C 200.035156 324.605469 192.125 329.609375 180.152344 323.589844 C 147.355469 307.074219 114.652344 290.355469 81.855469 273.863281 C 65.503906 265.652344 56.828125 252.207031 56.644531 234.308594 C 56.183594 188.457031 56.644531 142.605469 56.347656 96.730469 C 56.347656 88.359375 58.652344 87.734375 65.570312 91.265625 C 95.300781 106.578125 125.539062 121.132812 154.96875 136.746094 C 180.316406 150.214844 181.398438 155.058594 168.367188 184.953125 Z M 168.367188 184.953125 " fill-opacity="1" fill-rule="nonzero"/><path fill="#ecf2f4" d="M 207.898438 54.546875 C 209.042969 55.210938 210.152344 55.925781 211.226562 56.699219 C 212.300781 57.46875 213.335938 58.292969 214.328125 59.167969 C 215.320312 60.039062 216.269531 60.960938 217.171875 61.925781 C 218.074219 62.894531 218.925781 63.902344 219.730469 64.953125 C 220.53125 66.003906 221.28125 67.09375 221.976562 68.21875 C 222.671875 69.34375 223.3125 70.5 223.894531 71.6875 C 224.476562 72.875 225 74.085938 225.460938 75.324219 C 225.925781 76.566406 226.324219 77.824219 226.664062 79.101562 C 227.003906 80.378906 227.277344 81.671875 227.488281 82.976562 C 227.699219 84.285156 227.847656 85.597656 227.929688 86.917969 C 228.011719 88.238281 228.027344 89.558594 227.980469 90.878906 C 227.933594 92.199219 227.820312 93.515625 227.640625 94.828125 C 227.464844 96.136719 227.222656 97.4375 226.917969 98.722656 C 226.613281 100.011719 226.242188 101.277344 225.8125 102.53125 C 225.382812 103.78125 224.890625 105.007812 224.339844 106.210938 C 223.789062 107.410156 223.179688 108.582031 222.515625 109.726562 C 221.847656 110.867188 221.125 111.976562 220.351562 113.046875 C 219.574219 114.117188 218.75 115.148438 217.871094 116.136719 C 216.996094 117.128906 216.070312 118.074219 215.101562 118.972656 C 214.132812 119.871094 213.121094 120.71875 212.066406 121.519531 C 211.011719 122.320312 209.921875 123.0625 208.796875 123.757812 C 207.667969 124.449219 206.507812 125.082031 205.320312 125.660156 C 204.128906 126.238281 202.914062 126.757812 201.675781 127.214844 C 200.433594 127.671875 199.171875 128.070312 197.894531 128.402344 C 196.613281 128.738281 195.320312 129.007812 194.015625 129.214844 C 192.707031 129.421875 191.394531 129.5625 190.074219 129.640625 C 188.753906 129.71875 187.433594 129.730469 186.113281 129.679688 C 184.792969 129.625 183.476562 129.507812 182.164062 129.328125 C 180.855469 129.144531 179.558594 128.898438 178.273438 128.589844 C 176.984375 128.28125 175.71875 127.90625 174.46875 127.472656 C 173.21875 127.039062 171.996094 126.542969 170.796875 125.988281 C 169.59375 125.433594 168.425781 124.820312 167.285156 124.148438 C 166.144531 123.476562 165.039062 122.753906 163.972656 121.972656 C 162.902344 121.195312 161.875 120.363281 160.890625 119.484375 C 159.902344 118.605469 158.960938 117.675781 158.066406 116.703125 C 157.167969 115.730469 156.324219 114.714844 155.527344 113.660156 C 154.730469 112.601562 153.992188 111.511719 153.300781 110.378906 C 152.613281 109.25 151.984375 108.089844 151.410156 106.898438 C 150.835938 105.707031 150.320312 104.492188 149.867188 103.25 C 149.414062 102.007812 149.023438 100.746094 148.691406 99.464844 C 148.363281 98.183594 148.097656 96.890625 147.894531 95.582031 C 147.691406 94.273438 147.554688 92.960938 147.480469 91.640625 C 147.410156 90.320312 147.402344 89 147.457031 87.679688 C 147.515625 86.355469 147.636719 85.042969 147.824219 83.730469 C 148.011719 82.421875 148.261719 81.125 148.574219 79.839844 C 148.890625 78.554688 149.265625 77.289062 149.703125 76.042969 C 150.144531 74.796875 150.644531 73.570312 151.203125 72.375 C 151.761719 71.175781 152.378906 70.007812 153.054688 68.871094 C 153.714844 67.734375 154.429688 66.632812 155.199219 65.570312 C 155.96875 64.503906 156.789062 63.480469 157.660156 62.496094 C 158.53125 61.511719 159.445312 60.574219 160.410156 59.679688 C 161.371094 58.785156 162.375 57.941406 163.421875 57.144531 C 164.46875 56.351562 165.550781 55.609375 166.671875 54.921875 C 167.789062 54.234375 168.941406 53.605469 170.121094 53.03125 C 171.304688 52.453125 172.511719 51.941406 173.742188 51.484375 C 174.976562 51.027344 176.226562 50.636719 177.5 50.304688 C 178.769531 49.972656 180.054688 49.703125 181.351562 49.496094 C 182.648438 49.292969 183.953125 49.152344 185.265625 49.074219 C 186.578125 49 187.890625 48.984375 189.203125 49.039062 C 190.515625 49.089844 191.820312 49.207031 193.121094 49.390625 C 194.425781 49.570312 195.714844 49.816406 196.992188 50.125 C 198.265625 50.433594 199.527344 50.804688 200.765625 51.238281 C 202.007812 51.671875 203.222656 52.164062 204.414062 52.714844 C 205.605469 53.269531 206.769531 53.878906 207.898438 54.546875 Z M 207.898438 54.546875 " fill-opacity="1" fill-rule="nonzero"/></svg>