<svg xmlns="http://www.w3.org/2000/svg" xmlns:xlink="http://www.w3.org/1999/xlink" width="500" zoomAndPan="magnify" viewBox="0 0 375 374.999991" height="500" preserveAspectRatio="xMidYMid meet" version="1.0"><defs><clipPath id="id1"><path d="M 9.203125 54 L 365 54 L 365 375 L 9.203125 375 Z M 9.203125 54 " clip-rule="nonzero"/></clipPath></defs><g clip-path="url(#id1)"><path fill="#dedce6" d="M 161.429688 184.175781 C 135.480469 141.472656 89.078125 133.136719 51.871094 110.691406 C 46.195312 107.257812 43.699219 109.070312 43.699219 115.375 C 43.699219 161.230469 43.699219 207.058594 44.230469 252.914062 C 44.242188 253.90625 44.316406 254.890625 44.460938 255.871094 C 44.605469 256.855469 44.816406 257.820312 45.09375 258.773438 C 45.367188 259.726562 45.707031 260.65625 46.109375 261.5625 C 46.511719 262.46875 46.972656 263.34375 47.492188 264.1875 C 48.015625 265.03125 48.589844 265.832031 49.222656 266.597656 C 49.851562 267.363281 50.53125 268.082031 51.257812 268.753906 C 51.988281 269.425781 52.757812 270.046875 53.570312 270.613281 C 54.382812 271.179688 55.230469 271.691406 56.113281 272.144531 C 93.222656 291.183594 130.492188 309.945312 170.441406 330.171875 C 170.441406 294.179688 170.441406 260.96875 170.441406 227.722656 C 170.628906 175.871094 194.019531 138.039062 239.925781 114.375 C 276.632812 95.429688 313.710938 77.230469 350.449219 58.1875 C 359.992188 53.253906 364.921875 51.226562 364.765625 65.867188 C 364.171875 126.800781 364.765625 187.609375 364.421875 248.699219 C 364.265625 274.328125 352.601562 293.339844 329.117188 304.886719 C 293.753906 322.433594 258.605469 340.445312 220.777344 359.546875 C 220.777344 348.996094 221.308594 340.816406 220.777344 332.765625 C 220.058594 324.179688 223.644531 319.839844 231.191406 316.15625 C 258.292969 302.984375 284.832031 288.6875 311.996094 275.578125 C 325.3125 269.175781 330.988281 259.34375 330.925781 245.078125 C 330.925781 203.15625 330.585938 161.199219 330.925781 119.277344 C 330.925781 107.570312 327.652344 107.570312 318.703125 112.253906 C 295.96875 124.210938 272.421875 134.636719 250.09375 147.246094 C 220.683594 163.886719 204.683594 189.792969 204.25 223.945312 C 203.71875 267.648438 204.25 311.164062 204.25 354.773438 C 204.25 372.972656 193.550781 379.746094 177.367188 371.597656 C 133.019531 349.246094 88.796875 326.613281 44.449219 304.296875 C 22.304688 293.152344 10.488281 274.953125 10.238281 250.757812 C 9.582031 188.703125 10.207031 126.613281 9.832031 64.554688 C 9.832031 53.222656 12.949219 52.378906 22.304688 57.15625 C 62.414062 78.039062 103.140625 97.582031 143.089844 118.621094 C 177.613281 137.039062 179.050781 143.59375 161.429688 184.175781 Z M 161.429688 184.175781 " fill-opacity="1" fill-rule="nonzero"/></g><path fill="#dedce6" d="M 214.882812 7.554688 C 216.386719 8.476562 217.847656 9.472656 219.253906 10.535156 C 220.664062 11.601562 222.019531 12.730469 223.316406 13.929688 C 224.617188 15.125 225.855469 16.382812 227.03125 17.699219 C 228.210938 19.015625 229.320312 20.386719 230.363281 21.8125 C 231.410156 23.238281 232.382812 24.710938 233.28125 26.230469 C 234.183594 27.75 235.007812 29.308594 235.757812 30.910156 C 236.507812 32.507812 237.179688 34.140625 237.769531 35.808594 C 238.359375 37.472656 238.871094 39.164062 239.296875 40.878906 C 239.722656 42.59375 240.066406 44.324219 240.324219 46.070312 C 240.582031 47.820312 240.757812 49.578125 240.84375 51.339844 C 240.933594 53.105469 240.933594 54.871094 240.851562 56.636719 C 240.769531 58.402344 240.597656 60.160156 240.34375 61.910156 C 240.089844 63.65625 239.753906 65.390625 239.332031 67.105469 C 238.910156 68.820312 238.402344 70.511719 237.816406 72.179688 C 237.230469 73.847656 236.566406 75.480469 235.820312 77.082031 C 235.074219 78.683594 234.253906 80.246094 233.355469 81.769531 C 232.460938 83.292969 231.492188 84.765625 230.449219 86.195312 C 229.410156 87.621094 228.300781 88.996094 227.128906 90.316406 C 225.957031 91.636719 224.71875 92.898438 223.425781 94.097656 C 222.128906 95.296875 220.777344 96.429688 219.371094 97.5 C 217.964844 98.566406 216.507812 99.566406 215.003906 100.492188 C 213.503906 101.417969 211.957031 102.273438 210.371094 103.046875 C 208.785156 103.824219 207.167969 104.523438 205.511719 105.140625 C 203.859375 105.761719 202.179688 106.296875 200.472656 106.753906 C 198.765625 107.207031 197.042969 107.582031 195.300781 107.867188 C 193.558594 108.15625 191.808594 108.359375 190.046875 108.476562 C 188.285156 108.59375 186.519531 108.625 184.753906 108.570312 C 182.992188 108.515625 181.234375 108.375 179.480469 108.152344 C 177.730469 107.925781 175.996094 107.617188 174.273438 107.222656 C 172.550781 106.828125 170.855469 106.351562 169.179688 105.789062 C 167.503906 105.230469 165.863281 104.589844 164.25 103.871094 C 162.636719 103.152344 161.0625 102.355469 159.527344 101.484375 C 158.003906 100.566406 156.527344 99.578125 155.101562 98.519531 C 153.675781 97.457031 152.300781 96.328125 150.984375 95.132812 C 149.667969 93.9375 148.414062 92.679688 147.222656 91.363281 C 146.027344 90.042969 144.902344 88.667969 143.84375 87.242188 C 142.785156 85.8125 141.796875 84.332031 140.886719 82.808594 C 139.972656 81.28125 139.132812 79.714844 138.375 78.105469 C 137.613281 76.5 136.933594 74.855469 136.332031 73.183594 C 135.734375 71.507812 135.21875 69.808594 134.785156 68.082031 C 134.351562 66.355469 134.003906 64.613281 133.742188 62.855469 C 133.476562 61.09375 133.300781 59.324219 133.210938 57.546875 C 133.125 55.773438 133.121094 53.996094 133.207031 52.21875 C 133.289062 50.441406 133.460938 48.671875 133.71875 46.910156 C 133.980469 45.152344 134.320312 43.40625 134.75 41.679688 C 135.179688 39.953125 135.691406 38.253906 136.289062 36.578125 C 136.882812 34.898438 137.558594 33.257812 138.316406 31.648438 C 139.070312 30.035156 139.90625 28.46875 140.816406 26.941406 C 141.703125 25.402344 142.667969 23.910156 143.703125 22.46875 C 144.738281 21.023438 145.84375 19.636719 147.019531 18.304688 C 148.191406 16.96875 149.429688 15.695312 150.726562 14.484375 C 152.027344 13.273438 153.382812 12.128906 154.796875 11.054688 C 156.207031 9.976562 157.667969 8.972656 159.179688 8.039062 C 160.691406 7.109375 162.246094 6.253906 163.84375 5.472656 C 165.4375 4.695312 167.070312 3.996094 168.734375 3.378906 C 170.398438 2.765625 172.089844 2.230469 173.808594 1.78125 C 175.527344 1.332031 177.261719 0.96875 179.015625 0.691406 C 180.769531 0.410156 182.53125 0.222656 184.304688 0.117188 C 186.078125 0.015625 187.851562 0 189.625 0.0703125 C 191.398438 0.144531 193.164062 0.304688 194.921875 0.550781 C 196.679688 0.796875 198.421875 1.132812 200.148438 1.550781 C 201.875 1.972656 203.574219 2.472656 205.25 3.0625 C 206.925781 3.648438 208.566406 4.320312 210.175781 5.070312 C 211.785156 5.820312 213.355469 6.648438 214.882812 7.554688 Z M 214.882812 7.554688 " fill-opacity="1" fill-rule="nonzero"/></svg>