<svg xmlns="http://www.w3.org/2000/svg" xmlns:xlink="http://www.w3.org/1999/xlink" width="500" zoomAndPan="magnify" viewBox="0 0 375 120.749998" height="161" preserveAspectRatio="xMidYMid meet" version="1.0"><defs><clipPath id="id1"><path d="M 141.101562 30.660156 L 169 30.660156 L 169 79 L 141.101562 79 Z M 141.101562 30.660156 " clip-rule="nonzero"/></clipPath><clipPath id="id2"><path d="M 237 46 L 268 46 L 268 90.675781 L 237 90.675781 Z M 237 46 " clip-rule="nonzero"/></clipPath><clipPath id="id3"><path d="M 326 45 L 374.492188 45 L 374.492188 79 L 326 79 Z M 326 45 " clip-rule="nonzero"/></clipPath><clipPath id="id4"><path d="M 0.523438 0 L 120.550781 0 L 120.550781 120.027344 L 0.523438 120.027344 Z M 0.523438 0 " clip-rule="nonzero"/></clipPath></defs><g clip-path="url(#id1)"><path fill="#4c175a" d="M 168.820312 75.035156 C 168.84375 75.960938 168.546875 76.765625 167.929688 77.453125 C 167.253906 78.167969 166.425781 78.496094 165.449219 78.441406 C 164.890625 78.445312 164.359375 78.328125 163.855469 78.097656 C 163.382812 77.902344 162.960938 77.628906 162.589844 77.28125 L 147.84375 62.710938 L 147.84375 75.035156 C 147.867188 75.960938 147.570312 76.765625 146.953125 77.453125 C 146.277344 78.167969 145.449219 78.496094 144.472656 78.441406 C 143.496094 78.5 142.667969 78.171875 141.988281 77.460938 C 141.371094 76.773438 141.074219 75.964844 141.101562 75.035156 L 141.101562 34.269531 C 141.078125 33.34375 141.375 32.539062 141.988281 31.851562 C 142.3125 31.511719 142.691406 31.253906 143.125 31.082031 C 143.558594 30.910156 144.007812 30.835938 144.472656 30.863281 C 145.449219 30.808594 146.277344 31.136719 146.953125 31.851562 C 147.570312 32.539062 147.867188 33.34375 147.84375 34.269531 L 147.84375 60.667969 L 162.253906 46.441406 C 162.597656 46.097656 162.984375 45.820312 163.417969 45.605469 C 163.902344 45.367188 164.414062 45.25 164.953125 45.261719 C 165.921875 45.203125 166.75 45.523438 167.433594 46.21875 C 167.902344 46.742188 168.1875 47.355469 168.289062 48.054688 C 168.390625 48.753906 168.289062 49.421875 167.988281 50.058594 C 167.78125 50.507812 167.503906 50.910156 167.160156 51.265625 L 158.578125 59.363281 C 158.457031 59.476562 158.324219 59.566406 158.179688 59.640625 C 158.058594 59.722656 157.925781 59.777344 157.78125 59.800781 C 157.519531 59.8125 157.296875 59.730469 157.105469 59.550781 L 156.363281 58.871094 C 156.242188 58.746094 156.101562 58.664062 155.933594 58.625 C 155.792969 58.585938 155.652344 58.566406 155.503906 58.5625 C 155.234375 58.570312 155.019531 58.683594 154.859375 58.910156 C 154.675781 59.121094 154.582031 59.371094 154.585938 59.65625 C 154.578125 59.898438 154.660156 60.105469 154.832031 60.277344 L 167.648438 72.421875 C 168.003906 72.757812 168.292969 73.144531 168.515625 73.582031 C 168.726562 74.042969 168.828125 74.527344 168.820312 75.035156 Z M 168.820312 75.035156 " fill-opacity="1" fill-rule="nonzero"/></g><path fill="#4c175a" d="M 201.117188 70.394531 C 201.117188 71.300781 200.808594 72.085938 200.199219 72.75 C 198.699219 74.433594 196.929688 75.746094 194.894531 76.6875 C 192.742188 77.683594 190.480469 78.167969 188.113281 78.140625 C 185.902344 78.160156 183.773438 77.738281 181.734375 76.867188 C 179.8125 76.046875 178.121094 74.878906 176.667969 73.363281 C 175.207031 71.835938 174.074219 70.085938 173.265625 68.125 C 172.425781 66.101562 172.007812 63.996094 172.007812 61.804688 C 172.007812 59.613281 172.425781 57.507812 173.265625 55.488281 C 174.082031 53.554688 175.214844 51.835938 176.667969 50.328125 C 178.128906 48.8125 179.824219 47.644531 181.757812 46.824219 C 183.796875 45.957031 185.921875 45.53125 188.136719 45.550781 C 190.503906 45.523438 192.761719 46.007812 194.914062 47.003906 C 196.953125 47.949219 198.71875 49.261719 200.222656 50.941406 C 200.828125 51.617188 201.128906 52.410156 201.117188 53.324219 C 201.113281 53.878906 200.992188 54.40625 200.746094 54.902344 C 200.527344 55.390625 200.21875 55.8125 199.828125 56.175781 L 190.277344 64.074219 C 189.6875 64.613281 188.992188 64.882812 188.195312 64.882812 C 187.382812 64.898438 186.675781 64.628906 186.074219 64.074219 C 185.429688 63.464844 185.132812 62.71875 185.1875 61.828125 C 185.171875 61.308594 185.292969 60.824219 185.558594 60.375 C 185.792969 59.992188 186.082031 59.648438 186.417969 59.351562 L 194.449219 52.671875 C 194.722656 52.472656 194.847656 52.203125 194.820312 51.863281 C 194.804688 51.613281 194.722656 51.382812 194.574219 51.183594 C 194.378906 50.902344 194.113281 50.777344 193.773438 50.808594 C 193.460938 50.832031 193.195312 50.957031 192.972656 51.183594 L 191.441406 52.484375 C 191.355469 52.570312 191.253906 52.625 191.136719 52.640625 C 191.035156 52.648438 190.933594 52.648438 190.832031 52.640625 L 190.492188 52.640625 C 190.355469 52.644531 190.222656 52.625 190.09375 52.582031 C 189.820312 52.503906 189.542969 52.453125 189.261719 52.425781 C 188.894531 52.378906 188.527344 52.359375 188.15625 52.363281 C 186.871094 52.347656 185.636719 52.597656 184.453125 53.113281 C 183.324219 53.617188 182.324219 54.308594 181.453125 55.1875 C 181.023438 55.625 180.636719 56.097656 180.300781 56.609375 C 179.964844 57.121094 179.679688 57.660156 179.445312 58.230469 C 179.210938 58.796875 179.035156 59.386719 178.917969 59.988281 C 178.800781 60.59375 178.742188 61.203125 178.742188 61.816406 C 178.742188 62.433594 178.800781 63.042969 178.917969 63.644531 C 179.035156 64.25 179.210938 64.835938 179.445312 65.402344 C 179.679688 65.972656 179.964844 66.511719 180.300781 67.023438 C 180.636719 67.535156 181.023438 68.011719 181.453125 68.445312 C 182.324219 69.335938 183.324219 70.03125 184.453125 70.542969 C 185.691406 71.078125 186.984375 71.335938 188.332031 71.316406 C 189.679688 71.292969 190.960938 70.992188 192.179688 70.414062 C 193.363281 69.855469 194.386719 69.082031 195.25 68.09375 C 195.5625 67.726562 195.941406 67.445312 196.382812 67.25 C 196.820312 67.054688 197.28125 66.964844 197.761719 66.980469 C 198.207031 66.976562 198.636719 67.0625 199.050781 67.238281 C 199.464844 67.410156 199.828125 67.65625 200.144531 67.976562 C 200.460938 68.296875 200.703125 68.667969 200.871094 69.085938 C 201.039062 69.503906 201.121094 69.941406 201.117188 70.394531 Z M 201.117188 70.394531 " fill-opacity="1" fill-rule="nonzero"/><path fill="#4c175a" d="M 233.511719 75.035156 C 233.535156 75.960938 233.238281 76.765625 232.621094 77.453125 C 232.285156 77.769531 231.902344 78.015625 231.472656 78.1875 C 231.046875 78.359375 230.601562 78.445312 230.140625 78.445312 C 229.679688 78.445312 229.234375 78.359375 228.804688 78.1875 C 228.375 78.015625 227.996094 77.769531 227.65625 77.453125 C 227.042969 76.765625 226.746094 75.960938 226.769531 75.035156 L 226.769531 58.992188 C 226.816406 57.992188 226.660156 57.03125 226.308594 56.097656 C 225.957031 55.164062 225.4375 54.34375 224.746094 53.628906 C 224.386719 53.308594 224 53.023438 223.585938 52.773438 C 223.171875 52.519531 222.742188 52.308594 222.292969 52.136719 C 221.839844 51.964844 221.378906 51.835938 220.90625 51.75 C 220.433594 51.660156 219.957031 51.617188 219.472656 51.617188 C 218.992188 51.617188 218.515625 51.660156 218.042969 51.75 C 217.570312 51.835938 217.105469 51.964844 216.65625 52.136719 C 216.207031 52.308594 215.773438 52.519531 215.363281 52.773438 C 214.949219 53.023438 214.5625 53.308594 214.203125 53.628906 C 213.511719 54.34375 212.988281 55.164062 212.636719 56.097656 C 212.285156 57.03125 212.132812 57.992188 212.179688 58.992188 L 212.179688 75.035156 C 212.203125 75.960938 211.90625 76.765625 211.289062 77.453125 C 210.953125 77.769531 210.570312 78.015625 210.144531 78.1875 C 209.714844 78.359375 209.269531 78.445312 208.808594 78.445312 C 208.347656 78.445312 207.902344 78.359375 207.472656 78.1875 C 207.046875 78.015625 206.664062 77.769531 206.324219 77.453125 C 205.707031 76.769531 205.410156 75.960938 205.429688 75.035156 L 205.429688 59.117188 C 205.402344 57.207031 205.75 55.367188 206.472656 53.601562 C 207.148438 51.96875 208.121094 50.542969 209.386719 49.324219 C 210.683594 48.09375 212.164062 47.164062 213.832031 46.539062 C 215.65625 45.878906 217.535156 45.546875 219.472656 45.546875 C 221.410156 45.546875 223.292969 45.878906 225.117188 46.539062 C 226.785156 47.164062 228.265625 48.09375 229.5625 49.324219 C 230.828125 50.546875 231.796875 51.972656 232.472656 53.601562 C 233.195312 55.367188 233.542969 57.207031 233.519531 59.117188 Z M 233.511719 75.035156 " fill-opacity="1" fill-rule="nonzero"/><g clip-path="url(#id2)"><path fill="#4c175a" d="M 267.359375 76.53125 C 267.410156 78.707031 266.988281 80.78125 266.097656 82.761719 C 265.296875 84.480469 264.152344 85.925781 262.667969 87.097656 C 261.160156 88.261719 259.492188 89.109375 257.664062 89.632812 C 255.730469 90.199219 253.753906 90.480469 251.738281 90.472656 C 249.289062 90.488281 246.875 90.199219 244.5 89.605469 C 242.554688 89.171875 240.777344 88.363281 239.164062 87.1875 C 238.796875 86.855469 238.507812 86.464844 238.304688 86.011719 C 238.105469 85.578125 238.003906 85.125 238 84.648438 C 237.984375 83.738281 238.285156 82.949219 238.90625 82.289062 C 239.554688 81.59375 240.351562 81.265625 241.296875 81.300781 C 242.074219 81.277344 242.765625 81.507812 243.378906 81.980469 C 244.488281 82.917969 245.746094 83.546875 247.152344 83.867188 C 248.65625 84.226562 250.179688 84.398438 251.722656 84.394531 C 253.195312 84.433594 254.625 84.207031 256.011719 83.710938 C 257.066406 83.324219 257.976562 82.714844 258.742188 81.886719 C 259.40625 81.136719 259.886719 80.28125 260.179688 79.316406 C 260.464844 78.367188 260.609375 77.398438 260.609375 76.40625 L 260.609375 74.855469 C 260.585938 74.582031 260.472656 74.351562 260.273438 74.167969 C 260.074219 73.980469 259.839844 73.886719 259.566406 73.886719 C 259.296875 73.886719 259.058594 73.980469 258.859375 74.167969 C 258.660156 74.351562 258.546875 74.582031 258.527344 74.855469 L 258.527344 76.15625 C 258.527344 76.296875 258.5 76.433594 258.445312 76.5625 C 258.394531 76.691406 258.316406 76.804688 258.21875 76.902344 C 258.121094 77.003906 258.007812 77.078125 257.878906 77.132812 C 257.753906 77.1875 257.621094 77.214844 257.480469 77.214844 L 253.035156 77.214844 C 250.949219 77.234375 248.945312 76.832031 247.027344 76.007812 C 245.210938 75.226562 243.605469 74.128906 242.210938 72.722656 C 240.816406 71.304688 239.742188 69.675781 238.996094 67.824219 C 238.214844 65.90625 237.824219 63.910156 237.824219 61.835938 C 237.824219 59.761719 238.214844 57.765625 238.996094 55.847656 C 239.742188 53.996094 240.816406 52.363281 242.210938 50.949219 C 243.605469 49.542969 245.210938 48.445312 247.027344 47.664062 C 248.929688 46.851562 250.917969 46.457031 252.984375 46.480469 L 264.328125 46.480469 C 265.160156 46.453125 265.875 46.734375 266.476562 47.320312 C 267.085938 47.925781 267.371094 48.65625 267.335938 49.519531 Z M 260.613281 52.574219 L 253.945312 52.574219 C 252.703125 52.558594 251.503906 52.789062 250.355469 53.265625 C 249.203125 53.746094 248.195312 54.433594 247.324219 55.328125 C 246.488281 56.199219 245.851562 57.195312 245.417969 58.324219 C 244.96875 59.46875 244.742188 60.65625 244.742188 61.886719 C 244.742188 63.121094 244.96875 64.308594 245.417969 65.453125 C 245.851562 66.578125 246.488281 67.578125 247.324219 68.445312 C 248.195312 69.34375 249.203125 70.03125 250.355469 70.507812 C 251.503906 70.988281 252.703125 71.21875 253.945312 71.203125 L 260.613281 71.203125 Z M 260.613281 52.574219 " fill-opacity="1" fill-rule="nonzero"/></g><path fill="#4c175a" d="M 287.472656 49.511719 C 287.507812 50.375 287.222656 51.109375 286.613281 51.714844 C 286.015625 52.296875 285.296875 52.578125 284.464844 52.550781 L 277.292969 52.550781 C 277.023438 52.574219 276.796875 52.6875 276.613281 52.890625 C 276.429688 53.089844 276.335938 53.328125 276.335938 53.605469 C 276.335938 53.878906 276.429688 54.117188 276.613281 54.316406 C 276.796875 54.519531 277.023438 54.632812 277.292969 54.65625 L 278.457031 54.65625 C 278.59375 54.65625 278.730469 54.683594 278.855469 54.734375 C 278.984375 54.789062 279.097656 54.867188 279.195312 54.964844 C 279.292969 55.0625 279.367188 55.179688 279.421875 55.308594 C 279.476562 55.4375 279.5 55.570312 279.5 55.710938 L 279.5 75.035156 C 279.523438 75.960938 279.230469 76.765625 278.613281 77.453125 C 278.277344 77.769531 277.894531 78.015625 277.464844 78.1875 C 277.035156 78.359375 276.589844 78.445312 276.128906 78.445312 C 275.667969 78.445312 275.222656 78.359375 274.796875 78.1875 C 274.367188 78.015625 273.984375 77.769531 273.648438 77.453125 C 273.03125 76.765625 272.734375 75.960938 272.757812 75.035156 L 272.757812 49.511719 C 272.726562 48.660156 273.011719 47.933594 273.609375 47.332031 C 274.210938 46.75 274.925781 46.46875 275.757812 46.496094 L 284.464844 46.496094 C 285.296875 46.46875 286.015625 46.75 286.613281 47.332031 C 287.214844 47.933594 287.503906 48.660156 287.472656 49.511719 Z M 287.472656 49.511719 " fill-opacity="1" fill-rule="nonzero"/><path fill="#4c175a" d="M 321.890625 75.035156 C 321.914062 75.960938 321.617188 76.765625 321 77.453125 C 320.664062 77.769531 320.28125 78.015625 319.855469 78.1875 C 319.425781 78.359375 318.980469 78.445312 318.519531 78.445312 C 318.058594 78.445312 317.613281 78.359375 317.183594 78.1875 C 316.757812 78.015625 316.375 77.769531 316.039062 77.453125 C 315.421875 76.765625 315.125 75.960938 315.148438 75.035156 L 315.148438 73.183594 C 315.125 72.914062 315.015625 72.683594 314.8125 72.496094 C 314.613281 72.3125 314.378906 72.21875 314.105469 72.21875 C 313.835938 72.21875 313.601562 72.3125 313.398438 72.496094 C 313.199219 72.683594 313.089844 72.914062 313.066406 73.183594 L 313.066406 75.289062 C 313.054688 75.664062 312.890625 75.957031 312.578125 76.15625 C 311.5625 76.824219 310.46875 77.296875 309.292969 77.582031 C 307.929688 77.953125 306.539062 78.136719 305.125 78.132812 C 302.976562 78.152344 300.921875 77.71875 298.957031 76.832031 C 297.09375 75.992188 295.457031 74.824219 294.054688 73.328125 C 292.617188 71.765625 291.515625 69.996094 290.746094 68.007812 C 289.980469 66.023438 289.601562 63.964844 289.609375 61.835938 C 289.597656 59.640625 290.015625 57.535156 290.867188 55.515625 C 291.675781 53.554688 292.808594 51.808594 294.269531 50.277344 C 295.730469 48.761719 297.429688 47.59375 299.359375 46.773438 C 301.394531 45.925781 303.515625 45.503906 305.71875 45.503906 C 307.921875 45.503906 310.042969 45.925781 312.082031 46.773438 C 314.035156 47.601562 315.746094 48.789062 317.214844 50.328125 C 318.675781 51.859375 319.808594 53.605469 320.617188 55.570312 C 321.46875 57.585938 321.886719 59.695312 321.875 61.886719 Z M 315.148438 61.835938 C 315.144531 60.578125 314.898438 59.371094 314.40625 58.210938 C 313.941406 57.085938 313.289062 56.089844 312.445312 55.21875 C 311.585938 54.335938 310.597656 53.644531 309.480469 53.144531 C 308.285156 52.628906 307.039062 52.367188 305.738281 52.367188 C 304.4375 52.367188 303.191406 52.628906 301.996094 53.144531 C 300.878906 53.644531 299.890625 54.335938 299.03125 55.21875 C 298.1875 56.089844 297.535156 57.085938 297.070312 58.210938 C 296.601562 59.375 296.363281 60.582031 296.363281 61.835938 C 296.363281 63.089844 296.601562 64.296875 297.070312 65.460938 C 297.535156 66.585938 298.1875 67.582031 299.03125 68.453125 C 299.890625 69.335938 300.875 70.027344 301.996094 70.527344 C 303.191406 71.042969 304.4375 71.300781 305.738281 71.300781 C 307.039062 71.300781 308.285156 71.042969 309.480469 70.527344 C 310.597656 70.027344 311.585938 69.335938 312.445312 68.453125 C 313.289062 67.582031 313.941406 66.585938 314.40625 65.460938 C 314.886719 64.304688 315.128906 63.097656 315.125 61.84375 Z M 315.148438 61.835938 " fill-opacity="1" fill-rule="nonzero"/><g clip-path="url(#id3)"><path fill="#4c175a" d="M 374.496094 75.035156 C 374.519531 75.960938 374.222656 76.765625 373.609375 77.453125 C 373.273438 77.769531 372.890625 78.015625 372.460938 78.1875 C 372.03125 78.359375 371.585938 78.445312 371.125 78.445312 C 370.664062 78.445312 370.21875 78.359375 369.792969 78.1875 C 369.363281 78.015625 368.980469 77.769531 368.644531 77.453125 C 368.027344 76.765625 367.730469 75.960938 367.753906 75.035156 L 367.753906 58.5625 C 367.761719 57.628906 367.585938 56.730469 367.238281 55.867188 C 366.902344 55.039062 366.421875 54.304688 365.800781 53.667969 C 365.167969 53.027344 364.441406 52.53125 363.621094 52.171875 C 362.75 51.789062 361.84375 51.601562 360.894531 51.609375 C 359.964844 51.605469 359.078125 51.792969 358.226562 52.171875 C 357.40625 52.523438 356.683594 53.019531 356.050781 53.65625 C 355.421875 54.292969 354.929688 55.027344 354.582031 55.855469 C 354.207031 56.710938 354.023438 57.609375 354.027344 58.550781 L 354.027344 75.035156 C 354.046875 75.960938 353.75 76.765625 353.136719 77.453125 C 352.800781 77.769531 352.417969 78.015625 351.988281 78.1875 C 351.558594 78.359375 351.113281 78.445312 350.652344 78.445312 C 350.191406 78.445312 349.75 78.359375 349.320312 78.1875 C 348.890625 78.015625 348.507812 77.769531 348.171875 77.453125 C 347.554688 76.765625 347.257812 75.960938 347.28125 75.035156 L 347.28125 58.5625 C 347.285156 57.625 347.101562 56.726562 346.726562 55.867188 C 346.378906 55.039062 345.886719 54.308594 345.257812 53.671875 C 344.625 53.035156 343.902344 52.539062 343.082031 52.183594 C 342.230469 51.808594 341.34375 51.621094 340.414062 51.625 C 339.464844 51.617188 338.558594 51.804688 337.6875 52.183594 C 336.867188 52.542969 336.140625 53.042969 335.507812 53.683594 C 334.886719 54.320312 334.40625 55.054688 334.070312 55.882812 C 333.71875 56.746094 333.546875 57.644531 333.554688 58.578125 L 333.554688 75.035156 C 333.578125 75.960938 333.28125 76.765625 332.664062 77.453125 C 332.328125 77.769531 331.945312 78.015625 331.515625 78.1875 C 331.085938 78.359375 330.644531 78.445312 330.183594 78.445312 C 329.722656 78.445312 329.277344 78.359375 328.847656 78.1875 C 328.417969 78.015625 328.035156 77.769531 327.699219 77.453125 C 327.070312 76.773438 326.765625 75.964844 326.78125 75.035156 L 326.78125 58.4375 C 326.761719 56.6875 327.09375 55.007812 327.777344 53.402344 C 328.460938 51.792969 329.4375 50.394531 330.707031 49.207031 C 331.957031 48.03125 333.378906 47.132812 334.96875 46.511719 C 336.636719 45.859375 338.367188 45.539062 340.15625 45.550781 C 342.574219 45.496094 344.867188 46.023438 347.023438 47.132812 C 349.019531 48.203125 350.59375 49.71875 351.742188 51.683594 C 351.8125 51.839844 351.921875 51.957031 352.070312 52.039062 C 352.21875 52.121094 352.375 52.144531 352.542969 52.117188 C 352.855469 52.132812 353.121094 52.03125 353.34375 51.8125 C 353.554688 51.605469 353.652344 51.355469 353.648438 51.0625 C 353.644531 50.886719 353.601562 50.722656 353.523438 50.566406 C 353.277344 50.160156 353.011719 49.769531 352.722656 49.394531 C 352.589844 49.207031 352.527344 49 352.535156 48.769531 C 352.542969 48.621094 352.597656 48.484375 352.691406 48.367188 C 352.773438 48.246094 352.863281 48.128906 352.964844 48.023438 C 354.074219 47.152344 355.308594 46.542969 356.671875 46.195312 C 358.121094 45.773438 359.605469 45.554688 361.117188 45.542969 C 362.90625 45.53125 364.632812 45.851562 366.304688 46.503906 C 367.894531 47.125 369.3125 48.023438 370.5625 49.199219 C 371.835938 50.386719 372.8125 51.789062 373.496094 53.398438 C 374.183594 55.003906 374.515625 56.683594 374.496094 58.4375 Z M 374.496094 75.035156 " fill-opacity="1" fill-rule="nonzero"/></g><g clip-path="url(#id4)"><path fill="#4c175a" d="M 29.957031 0 L 91.117188 0 C 92.082031 0 93.042969 0.046875 94.003906 0.140625 C 94.960938 0.234375 95.914062 0.378906 96.859375 0.566406 C 97.804688 0.753906 98.738281 0.988281 99.660156 1.265625 C 100.585938 1.546875 101.492188 1.871094 102.382812 2.242188 C 103.273438 2.609375 104.140625 3.019531 104.992188 3.476562 C 105.84375 3.929688 106.667969 4.425781 107.46875 4.960938 C 108.269531 5.496094 109.042969 6.070312 109.789062 6.679688 C 110.535156 7.292969 111.25 7.9375 111.929688 8.621094 C 112.613281 9.300781 113.257812 10.015625 113.871094 10.761719 C 114.480469 11.507812 115.054688 12.28125 115.589844 13.082031 C 116.125 13.882812 116.621094 14.707031 117.074219 15.558594 C 117.53125 16.410156 117.941406 17.277344 118.308594 18.167969 C 118.679688 19.058594 119.003906 19.964844 119.285156 20.890625 C 119.5625 21.8125 119.796875 22.746094 119.984375 23.691406 C 120.171875 24.636719 120.316406 25.589844 120.410156 26.546875 C 120.503906 27.507812 120.550781 28.46875 120.550781 29.433594 L 120.550781 90.59375 C 120.550781 91.558594 120.503906 92.519531 120.410156 93.480469 C 120.316406 94.441406 120.171875 95.390625 119.984375 96.335938 C 119.796875 97.28125 119.5625 98.21875 119.285156 99.140625 C 119.003906 100.0625 118.679688 100.96875 118.308594 101.859375 C 117.941406 102.75 117.53125 103.621094 117.074219 104.46875 C 116.621094 105.320312 116.125 106.144531 115.589844 106.949219 C 115.054688 107.75 114.480469 108.523438 113.871094 109.269531 C 113.257812 110.011719 112.613281 110.726562 111.929688 111.40625 C 111.25 112.089844 110.535156 112.734375 109.789062 113.347656 C 109.042969 113.960938 108.269531 114.53125 107.46875 115.070312 C 106.667969 115.605469 105.84375 116.097656 104.992188 116.554688 C 104.140625 117.007812 103.273438 117.417969 102.382812 117.789062 C 101.492188 118.15625 100.585938 118.480469 99.660156 118.761719 C 98.738281 119.042969 97.804688 119.273438 96.859375 119.464844 C 95.914062 119.652344 94.960938 119.792969 94.003906 119.886719 C 93.042969 119.980469 92.082031 120.027344 91.117188 120.027344 L 29.957031 120.027344 C 28.992188 120.027344 28.03125 119.980469 27.070312 119.886719 C 26.109375 119.792969 25.160156 119.652344 24.214844 119.464844 C 23.269531 119.273438 22.332031 119.042969 21.410156 118.761719 C 20.488281 118.480469 19.582031 118.15625 18.691406 117.789062 C 17.800781 117.417969 16.929688 117.007812 16.082031 116.554688 C 15.230469 116.097656 14.40625 115.605469 13.601562 115.070312 C 12.800781 114.53125 12.027344 113.960938 11.28125 113.347656 C 10.539062 112.734375 9.824219 112.089844 9.144531 111.40625 C 8.460938 110.726562 7.816406 110.011719 7.203125 109.269531 C 6.589844 108.523438 6.019531 107.75 5.480469 106.949219 C 4.945312 106.144531 4.453125 105.320312 3.996094 104.46875 C 3.542969 103.621094 3.132812 102.75 2.761719 101.859375 C 2.394531 100.96875 2.070312 100.0625 1.789062 99.140625 C 1.507812 98.21875 1.277344 97.28125 1.085938 96.335938 C 0.898438 95.390625 0.757812 94.441406 0.664062 93.480469 C 0.570312 92.519531 0.523438 91.558594 0.523438 90.59375 L 0.523438 29.433594 C 0.523438 28.46875 0.570312 27.507812 0.664062 26.546875 C 0.757812 25.589844 0.898438 24.636719 1.085938 23.691406 C 1.277344 22.746094 1.507812 21.8125 1.789062 20.890625 C 2.070312 19.964844 2.394531 19.058594 2.761719 18.167969 C 3.132812 17.277344 3.542969 16.410156 3.996094 15.558594 C 4.453125 14.707031 4.945312 13.882812 5.480469 13.082031 C 6.019531 12.28125 6.589844 11.507812 7.203125 10.761719 C 7.816406 10.015625 8.460938 9.300781 9.144531 8.621094 C 9.824219 7.9375 10.539062 7.292969 11.28125 6.679688 C 12.027344 6.070312 12.800781 5.496094 13.601562 4.960938 C 14.40625 4.425781 15.230469 3.929688 16.082031 3.476562 C 16.929688 3.019531 17.800781 2.609375 18.691406 2.242188 C 19.582031 1.871094 20.488281 1.546875 21.410156 1.265625 C 22.332031 0.988281 23.269531 0.753906 24.214844 0.566406 C 25.160156 0.378906 26.109375 0.234375 27.070312 0.140625 C 28.03125 0.046875 28.992188 0 29.957031 0 Z M 29.957031 0 " fill-opacity="1" fill-rule="nonzero"/></g><path fill="#ecf2f4" d="M 54.414062 59.199219 C 48.269531 49.101562 37.285156 47.128906 28.480469 41.820312 C 27.136719 41.007812 26.542969 41.4375 26.542969 42.929688 C 26.542969 53.773438 26.542969 64.609375 26.671875 75.453125 C 26.675781 75.925781 26.742188 76.386719 26.875 76.839844 C 27.003906 77.292969 27.195312 77.71875 27.441406 78.121094 C 27.691406 78.519531 27.988281 78.882812 28.332031 79.199219 C 28.679688 79.519531 29.0625 79.789062 29.484375 80.003906 C 38.269531 84.503906 47.089844 88.941406 56.546875 93.726562 C 56.546875 85.214844 56.546875 77.359375 56.546875 69.496094 C 56.628906 57.234375 62.132812 48.289062 73 42.683594 C 81.691406 38.203125 90.46875 33.898438 99.164062 29.394531 C 101.421875 28.230469 102.589844 27.75 102.554688 31.210938 C 102.414062 45.621094 102.554688 60.003906 102.472656 74.449219 C 102.433594 80.511719 99.671875 85.007812 94.113281 87.738281 C 85.742188 91.886719 77.421875 96.148438 68.46875 100.664062 C 68.46875 98.167969 68.59375 96.234375 68.46875 94.332031 C 68.300781 92.300781 69.148438 91.273438 70.933594 90.402344 C 77.347656 87.289062 83.632812 83.90625 90.0625 80.808594 C 93.214844 79.292969 94.558594 76.96875 94.542969 73.59375 C 94.542969 63.679688 94.460938 53.757812 94.542969 43.84375 C 94.542969 41.074219 93.769531 41.074219 91.648438 42.183594 C 86.265625 45.011719 80.695312 47.476562 75.40625 50.457031 C 68.4375 54.429688 64.644531 60.535156 64.546875 68.65625 C 64.421875 78.992188 64.546875 89.28125 64.546875 99.59375 C 64.546875 103.898438 62.015625 105.5 58.183594 103.574219 C 47.6875 98.289062 37.21875 92.9375 26.722656 87.65625 C 21.488281 85.03125 18.710938 80.726562 18.652344 74.996094 C 18.503906 60.320312 18.652344 45.644531 18.558594 30.960938 C 18.558594 28.28125 19.296875 28.082031 21.511719 29.210938 C 31.027344 34.113281 40.703125 38.773438 50.125 43.769531 C 58.238281 48.082031 58.582031 49.632812 54.414062 59.199219 Z M 54.414062 59.199219 " fill-opacity="1" fill-rule="nonzero"/><path fill="#ecf2f4" d="M 67.066406 17.460938 C 67.800781 17.882812 68.488281 18.378906 69.125 18.9375 C 69.761719 19.5 70.335938 20.117188 70.851562 20.789062 C 71.367188 21.464844 71.8125 22.183594 72.183594 22.945312 C 72.558594 23.707031 72.855469 24.5 73.070312 25.320312 C 73.289062 26.140625 73.425781 26.972656 73.476562 27.820312 C 73.53125 28.667969 73.5 29.511719 73.386719 30.351562 C 73.269531 31.191406 73.074219 32.015625 72.800781 32.816406 C 72.523438 33.621094 72.171875 34.386719 71.742188 35.121094 C 71.316406 35.855469 70.820312 36.539062 70.257812 37.171875 C 69.695312 37.808594 69.074219 38.382812 68.398438 38.894531 C 67.722656 39.410156 67.003906 39.851562 66.238281 40.222656 C 65.476562 40.59375 64.683594 40.882812 63.863281 41.097656 C 63.042969 41.3125 62.207031 41.445312 61.359375 41.496094 C 60.511719 41.546875 59.667969 41.511719 58.828125 41.394531 C 57.988281 41.277344 57.167969 41.078125 56.367188 40.800781 C 55.5625 40.523438 54.796875 40.167969 54.066406 39.738281 C 53.335938 39.308594 52.652344 38.808594 52.019531 38.246094 C 51.386719 37.679688 50.8125 37.058594 50.304688 36.378906 C 49.792969 35.703125 49.351562 34.980469 48.984375 34.214844 C 48.617188 33.453125 48.328125 32.65625 48.113281 31.835938 C 47.902344 31.015625 47.773438 30.179688 47.726562 29.332031 C 47.679688 28.484375 47.71875 27.640625 47.835938 26.800781 C 47.957031 25.960938 48.15625 25.140625 48.4375 24.339844 C 48.722656 23.539062 49.078125 22.773438 49.511719 22.042969 C 49.933594 21.316406 50.425781 20.636719 50.984375 20.003906 C 51.542969 19.371094 52.160156 18.800781 52.828125 18.292969 C 53.5 17.78125 54.214844 17.34375 54.972656 16.972656 C 55.734375 16.605469 56.519531 16.3125 57.335938 16.101562 C 58.152344 15.886719 58.980469 15.757812 59.820312 15.707031 C 60.664062 15.660156 61.5 15.691406 62.335938 15.808594 C 63.171875 15.925781 63.988281 16.121094 64.78125 16.398438 C 65.578125 16.679688 66.339844 17.03125 67.066406 17.460938 Z M 67.066406 17.460938 " fill-opacity="1" fill-rule="nonzero"/></svg>